<?xml version="1.0" encoding="UTF-8" standalone="no"?>
<!DOCTYPE svg PUBLIC "-//W3C//DTD SVG 1.1//EN" "http://www.w3.org/Graphics/SVG/1.1/DTD/svg11.dtd">
<svg width="100%" height="100%" viewBox="0 0 46 50" version="1.1" xmlns="http://www.w3.org/2000/svg" xmlns:xlink="http://www.w3.org/1999/xlink" xml:space="preserve" xmlns:serif="http://www.serif.com/" style="fill-rule:evenodd;clip-rule:evenodd;stroke-linejoin:round;stroke-miterlimit:2;">
    <g transform="matrix(1,0,0,1,-60,-557)">
        <g transform="matrix(3.68865,0,0,4.31977,-861.505,-13946.4)">
            <rect x="233.556" y="3228.51" width="439.185" height="152.091" style="fill:rgb(13,21,38);"/>
        </g>
        <g>
            <g transform="matrix(0.416278,0,0,0.416278,-149.129,357.21)">
                <path d="M514.445,577.237L502.379,570.27L502.379,521.499C502.379,512.876 506.979,504.908 514.447,500.596C523.427,495.411 535.635,488.363 544.617,483.178C552.084,478.866 561.285,478.866 568.753,483.178L608.288,506.004L567.196,530.195C559.166,534.945 554.028,543.937 553.97,553.221C553.938,568.833 553.968,584.444 553.969,600.056L538.885,591.347L538.885,541.394C538.9,533.859 543.068,526.663 549.517,522.885C564.499,514.194 581.473,504.436 581.473,504.436L576.042,501.3L546.877,518.139C538.739,522.86 533.512,531.955 533.454,541.279C533.415,560.075 533.446,570.992 533.453,588.211L519.878,580.373L519.878,530.204C519.893,522.669 524.146,515.423 530.51,511.696C545.43,503.041 562.279,493.354 562.279,493.354C562.279,493.354 560.921,492.57 559.564,491.786C557.883,490.816 555.813,490.816 554.133,491.786C546.928,495.947 527.87,506.949 527.87,506.949C519.719,511.678 514.505,520.768 514.447,530.089C514.411,547.265 514.438,560.949 514.445,577.237Z" style="fill:rgb(255,0,64);"/>
            </g>
            <g transform="matrix(0.416278,0,0,0.416278,-149.129,357.21)">
                <path d="M574.485,591.347L559.4,600.056L559.4,553.335C559.415,545.876 563.535,538.705 569.877,534.919C583.564,526.822 597.285,518.781 610.99,510.714L610.99,570.27L598.922,577.238L598.922,535.217L593.492,538.512L593.492,580.373L579.915,588.211L579.915,546.445C579.915,546.445 578.208,547.453 576.708,548.339C575.33,549.154 574.485,550.635 574.485,552.236L574.485,591.347Z" style="fill:white;"/>
            </g>
        </g>
    </g>
</svg>
