<?xml version="1.0" encoding="UTF-8" standalone="no"?>
<!DOCTYPE svg PUBLIC "-//W3C//DTD SVG 1.1//EN" "http://www.w3.org/Graphics/SVG/1.1/DTD/svg11.dtd">
<svg width="100%" height="100%" viewBox="0 0 24 24" version="1.1" xmlns="http://www.w3.org/2000/svg" xmlns:xlink="http://www.w3.org/1999/xlink" xml:space="preserve" xmlns:serif="http://www.serif.com/" style="fill-rule:evenodd;clip-rule:evenodd;stroke-linecap:round;stroke-linejoin:round;">
    <path d="M17.365,5.635C17.461,5.541 17.515,5.412 17.515,5.278C17.515,5.132 17.45,4.992 17.338,4.897C14.24,2.377 9.76,2.377 6.662,4.897C6.55,4.992 6.485,5.132 6.485,5.278C6.485,5.412 6.539,5.541 6.635,5.635L7.7,6.7C7.882,6.877 8.17,6.891 8.367,6.732C10.504,5.094 13.496,5.094 15.633,6.732C15.83,6.891 16.118,6.877 16.3,6.7L17.365,5.635Z" style="fill:none;fill-rule:nonzero;stroke:rgb(20,24,31);stroke-width:1px;"/>
    <g transform="matrix(-0.422618,-0.906308,0.906308,-0.422618,-7.01214,30.0126)">
        <path d="M5.324,14.564L6.784,14.564C8.653,14.564 10.19,16.101 10.19,17.97C10.19,19.038 9.311,19.916 8.244,19.916L3.864,19.916C2.797,19.916 1.918,19.038 1.918,17.97C1.918,16.101 3.455,14.564 5.324,14.564Z" style="fill:none;fill-rule:nonzero;stroke:rgb(20,24,31);stroke-width:1px;"/>
    </g>
    <g transform="matrix(0.422618,-0.906308,0.906308,0.422618,-5.26297,26.2186)">
        <path d="M15.756,14.564L20.136,14.564C21.203,14.564 22.082,15.442 22.082,16.51C22.082,18.379 20.545,19.916 18.676,19.916L17.216,19.916C15.347,19.916 13.81,18.379 13.81,16.51C13.81,15.442 14.689,14.564 15.756,14.564L15.756,14.564Z" style="fill:none;fill-rule:nonzero;stroke:rgb(20,24,31);stroke-width:1px;"/>
    </g>
    <path d="M20.127,13.993C20.374,13.186 20.5,12.346 20.5,11.502C20.5,6.839 16.663,3.002 12,3.002C7.337,3.002 3.5,6.839 3.5,11.502C3.5,12.346 3.626,13.186 3.873,13.993" style="fill:none;fill-rule:nonzero;stroke:rgb(20,24,31);stroke-width:1px;"/>
    <rect x="0" y="0" width="24" height="24" style="fill:none;"/>
</svg>
