<?xml version="1.0" encoding="UTF-8" standalone="no"?>
<!DOCTYPE svg PUBLIC "-//W3C//DTD SVG 1.1//EN" "http://www.w3.org/Graphics/SVG/1.1/DTD/svg11.dtd">
<svg width="100%" height="100%" viewBox="0 0 60 19" version="1.1" xmlns="http://www.w3.org/2000/svg" xmlns:xlink="http://www.w3.org/1999/xlink" xml:space="preserve" xmlns:serif="http://www.serif.com/" style="fill-rule:evenodd;clip-rule:evenodd;stroke-linejoin:round;stroke-miterlimit:2;">
    <g transform="matrix(1,0,0,1,-157.5,-84.5082)">
        <g transform="matrix(0.0355059,0,0,0.0355059,150.515,64.1599)">
            <path d="M1362.43,1047.16C1338.01,1075.72 1304.55,1094.93 1267.81,1102.67C1229.87,1110.67 1188.69,1110.06 1152.67,1094.84C1083.12,1065.45 1051.21,991.002 1051.21,919.352C1051.21,800.593 1118.31,757.235 1151.36,742.577C1182.18,728.877 1217.17,725.481 1251.03,728.543C1283.17,731.468 1346.63,752.352 1346.63,754.093C1346.61,791.885 1346.6,829.698 1346.58,867.498L1305.18,867.498C1292.26,867.498 1288.66,860.052 1287.36,846.885C1285.89,831.902 1284.07,816.948 1282.61,801.956C1249.47,793.681 1211.98,789.331 1182.55,810.643C1153.09,831.939 1144.08,870.435 1142.51,904.831C1140.88,939.789 1145.24,979.031 1166.68,1008.14C1187.6,1036.51 1221.74,1044.03 1254.71,1038.36C1270.67,1035.59 1284.68,1027.33 1297.6,1017.86C1304.18,1013.06 1310.11,1007.27 1318.63,1006.59C1325.88,1005.99 1332.81,1008.54 1336.86,1014.78L1362.43,1047.16ZM833.728,727.436C732.874,727.436 651.132,792.161 651.132,917.599C651.132,1041.6 731.286,1107.76 833.728,1107.76C936.895,1107.76 1016.33,1042.11 1016.33,917.599C1016.33,790.607 935.303,727.436 833.728,727.436ZM1564.42,727.436C1463.58,727.436 1381.82,792.161 1381.82,917.599C1381.82,1041.6 1461.98,1107.76 1564.42,1107.76C1667.6,1107.76 1747.04,1042.11 1747.04,917.599C1747.04,790.607 1666,727.436 1564.42,727.436ZM1886.6,1053.24C1886.6,1083.35 1862.2,1107.76 1832.07,1107.76C1801.97,1107.76 1777.56,1083.35 1777.56,1053.24C1777.56,1023.12 1801.97,998.714 1832.07,998.714C1862.2,998.714 1886.6,1023.12 1886.6,1053.24ZM627.417,1065.47L627.417,1107.75L484.038,1107.75L484.038,872.8C483.425,807.908 443.192,802.329 421.438,801.937C401.163,801.57 372.78,808.408 340.121,840.787L340.121,1036.44C349.1,1038.03 375.53,1042.78 376.584,1042.96C388.58,1045.53 394.584,1053.04 394.584,1065.47L394.584,1107.75L196.738,1107.75L196.738,1065.47C196.738,1053.04 202.746,1045.53 214.759,1042.96C215.792,1042.78 242.259,1038.03 251.242,1036.44L251.242,644.42C242.259,642.833 215.792,638.079 214.738,637.9C202.746,635.329 196.738,627.825 196.738,615.383L196.738,573.095L340.121,573.095L340.121,778.562C358.159,762.204 391.705,732.116 448.421,732.858C494.217,733.445 521.334,749.212 541.071,771.891C551.7,784.066 572.546,813.862 572.913,872.8L572.913,1036.41C581.896,1038 608.363,1042.78 609.4,1042.96C621.413,1045.53 627.417,1053.04 627.417,1065.47ZM833.728,1039.63C783.682,1039.63 743.132,1011.62 743.132,917.836C743.132,827.39 780.836,795.603 833.728,795.603C884.736,795.603 924.345,824.19 924.345,917.836C924.345,1014.4 882.761,1039.63 833.728,1039.63ZM1564.42,1039.63C1514.37,1039.63 1473.8,1011.62 1473.8,917.836C1473.8,827.39 1511.55,795.603 1564.42,795.603C1615.44,795.603 1655.04,824.19 1655.04,917.836C1655.04,1014.4 1613.45,1039.63 1564.42,1039.63Z" style="fill:rgb(3,4,4);fill-rule:nonzero;"/>
        </g>
    </g>
</svg>
