<?xml version="1.0" encoding="UTF-8" standalone="no"?>
<!DOCTYPE svg PUBLIC "-//W3C//DTD SVG 1.1//EN" "http://www.w3.org/Graphics/SVG/1.1/DTD/svg11.dtd">
<svg width="100%" height="100%" viewBox="0 0 249 40" version="1.1" xmlns="http://www.w3.org/2000/svg" xmlns:xlink="http://www.w3.org/1999/xlink" xml:space="preserve" xmlns:serif="http://www.serif.com/" style="fill-rule:evenodd;clip-rule:evenodd;stroke-linejoin:round;stroke-miterlimit:2;">
    <g transform="matrix(1,0,0,1,-60,-20)">
        <g transform="matrix(0.333023,0,0,0.333023,20.674,-43.2555)">
            <g>
                <g transform="matrix(1,0,0,1,-56.6845,-428.21)">
                    <path d="M514.445,715.446L502.379,708.48L502.379,659.708C502.379,651.085 506.979,643.117 514.447,638.806C523.427,633.621 535.635,626.573 544.617,621.388C552.084,617.076 561.285,617.076 568.753,621.388L608.288,644.213L567.196,668.405C559.166,673.154 554.028,682.146 553.97,691.431C553.938,707.042 553.968,722.654 553.969,738.266L538.885,729.556L538.885,679.604C538.9,672.068 543.068,664.872 549.517,661.095C564.499,652.404 581.473,642.645 581.473,642.645L576.042,639.51L546.877,656.348C538.739,661.07 533.512,670.165 533.454,679.488C533.415,698.285 533.446,709.202 533.453,726.42L519.878,718.583L519.878,668.414C519.893,660.879 524.146,653.633 530.51,649.906C545.43,641.25 562.279,631.564 562.279,631.564C562.279,631.564 560.921,630.78 559.564,629.996C557.883,629.026 555.813,629.026 554.133,629.996C546.928,634.156 527.87,645.159 527.87,645.159C519.719,649.887 514.505,658.977 514.447,668.299C514.411,685.475 514.438,699.159 514.445,715.446Z" style="fill:rgb(251,0,65);"/>
                </g>
                <g transform="matrix(1,0,0,1,-56.6845,-428.21)">
                    <path d="M574.485,729.556L559.4,738.266L559.4,691.545C559.415,684.086 563.535,676.914 569.877,673.128C583.564,665.032 597.285,656.99 610.99,648.924L610.99,708.48L598.922,715.447L598.922,673.426L593.492,676.722L593.492,718.583L579.915,726.421L579.915,684.655C579.915,684.655 578.208,685.663 576.708,686.549C575.33,687.363 574.485,688.845 574.485,690.445L574.485,729.556Z" style="fill:white;"/>
                </g>
                <g transform="matrix(0.24,0,0,0.24,254.101,127.831)">
                    <path d="M1850.85,490.126L1850.85,528.163C1850.85,605.334 1819.49,615.751 1746.63,615.751C1673.77,615.751 1642.52,605.334 1642.52,529.978L1642.52,488.311C1642.52,412.955 1673.77,402.538 1746.63,402.538C1819.49,402.538 1850.85,412.955 1850.85,490.126ZM41.01,541.254C36.788,536.007 -17.629,526.567 -39.542,521.674C-72.187,514.384 -82.375,491.475 -82.375,464.591C-82.375,447.667 -77.969,429.083 -64.3,416.374C-48.987,402.135 -8.663,402.44 12.247,402.44C31.691,402.44 58.538,403.778 68.885,404.335C70.013,404.397 71.067,404.915 71.806,405.769C72.546,406.624 72.906,407.741 72.805,408.867C72.207,415.558 71.042,428.59 70.28,437.11C69.873,441.625 65.932,444.988 61.409,444.677C42.915,443.428 -2.808,441.043 -30.549,445.577C-31.207,445.684 -35.766,446.353 -37.007,447.972C-41.472,453.798 -41.814,473.499 -39.145,476.816C-34.922,482.063 19.494,491.503 41.407,496.396C74.052,503.686 84.24,526.595 84.24,553.479C84.24,570.403 79.834,588.987 66.165,601.696C50.852,615.935 10.528,615.63 -10.382,615.63C-30.474,615.63 -65.883,613.801 -78.108,613.135C-79.234,613.073 -80.287,612.557 -81.026,611.706C-81.765,610.854 -82.128,609.739 -82.031,608.616C-81.45,601.897 -80.314,588.76 -79.573,580.18C-79.179,575.652 -75.229,572.274 -70.695,572.588C-50.143,574.018 4.088,577.122 32.414,572.493C33.072,572.386 37.631,571.717 38.872,570.098C43.337,564.272 43.68,544.571 41.01,541.254ZM2420.05,530.094L2420.05,561.345C2420.05,567.098 2424.72,571.762 2430.47,571.762C2456.49,571.762 2523.5,571.762 2540.88,571.762C2543.18,571.762 2545.05,573.627 2545.05,575.928C2545.05,583.912 2545.05,601.278 2545.05,609.262C2545.05,611.563 2543.18,613.428 2540.88,613.428C2525.69,613.428 2472.02,613.428 2430.47,613.428C2401.7,613.428 2378.39,590.11 2378.39,561.345C2378.39,529.532 2378.39,488.993 2378.39,457.18C2378.39,428.415 2401.7,405.096 2430.47,405.096C2472.02,405.096 2525.69,405.096 2540.88,405.096C2543.18,405.096 2545.05,406.962 2545.05,409.263C2545.05,417.246 2545.05,434.613 2545.05,442.596C2545.05,444.898 2543.18,446.763 2540.88,446.763C2523.5,446.763 2456.49,446.763 2430.47,446.763C2424.72,446.763 2420.05,451.427 2420.05,457.18L2420.05,488.427L2520.05,488.427C2522.35,488.427 2524.22,490.292 2524.22,492.594C2524.22,500.577 2524.22,517.944 2524.22,525.927C2524.22,528.227 2522.35,530.092 2520.05,530.094L2420.05,530.094ZM1904.12,613.314L1896.68,613.314C1894.47,613.314 1892.35,612.436 1890.79,610.874C1889.23,609.311 1888.35,607.191 1888.35,604.981C1888.35,569.862 1888.35,434.56 1888.35,409.035C1888.35,407.93 1888.79,406.87 1889.57,406.089C1890.35,405.307 1891.41,404.868 1892.52,404.868C1907.26,404.868 1958.38,404.868 2000.89,404.868C2017.47,404.868 2033.36,411.453 2045.08,423.174C2056.8,434.895 2063.39,450.792 2063.39,467.368L2063.39,498.675C2076.06,508.175 2084.26,523.316 2084.26,540.37C2084.26,543.847 2084.26,547.368 2084.26,550.889C2084.26,567.472 2077.67,583.375 2065.94,595.097C2054.21,606.819 2038.3,613.399 2021.72,613.389L1904.12,613.314ZM1497.65,596.52C1496.16,599.098 1493.41,600.687 1490.43,600.687C1487.46,600.687 1484.71,599.098 1483.22,596.52C1464.8,564.626 1417.52,482.725 1417.52,482.725L1417.52,609.148C1417.52,611.449 1415.65,613.314 1413.35,613.314C1405.37,613.314 1388,613.314 1380.02,613.314C1377.72,613.314 1375.85,611.449 1375.85,609.148C1375.85,582.465 1375.85,435.828 1375.85,409.145C1375.85,408.04 1376.29,406.98 1377.07,406.199C1377.85,405.417 1378.91,404.979 1380.02,404.979C1386.49,404.979 1399.2,404.979 1408.71,404.979C1416.16,404.979 1423.04,408.949 1426.76,415.395C1443.67,444.692 1490.43,525.687 1490.43,525.687C1490.43,525.687 1537.2,444.692 1554.11,415.395C1557.83,408.949 1564.71,404.979 1572.15,404.979C1581.66,404.979 1594.38,404.979 1600.85,404.979C1601.96,404.979 1603.02,405.417 1603.8,406.199C1604.58,406.98 1605.02,408.04 1605.02,409.145C1605.02,435.828 1605.02,582.465 1605.02,609.148C1605.02,611.449 1603.15,613.314 1600.85,613.314C1592.87,613.314 1575.5,613.314 1567.52,613.314C1565.22,613.314 1563.35,611.449 1563.35,609.148C1563.35,586.859 1563.35,482.725 1563.35,482.725C1563.35,482.725 1516.07,564.626 1497.65,596.52ZM2345.05,571.535C2346.16,571.536 2347.21,571.975 2347.99,572.755C2348.78,573.537 2349.22,574.597 2349.22,575.702C2349.22,583.685 2349.22,601.053 2349.22,609.036C2349.22,611.337 2347.35,613.202 2345.05,613.203C2311.45,613.218 2277.85,613.41 2244.25,613.197C2211.9,612.583 2182.76,584.724 2182.55,550.767L2182.55,409.035C2182.55,406.734 2184.41,404.868 2186.72,404.868C2194.7,404.868 2212.07,404.868 2220.05,404.868C2222.35,404.868 2224.22,406.734 2224.22,409.035C2224.22,428.116 2224.22,508.044 2224.22,550.636C2224.28,561.646 2233.58,571.46 2245.12,571.535L2345.05,571.535ZM587.993,550.7L544.138,550.702L544.138,609.037C544.138,611.339 542.273,613.204 539.972,613.204C531.988,613.204 514.621,613.204 506.638,613.204C504.337,613.204 502.471,611.339 502.471,609.038C502.471,582.355 502.471,435.717 502.471,409.035C502.472,406.734 504.337,404.868 506.638,404.868C526.522,404.868 610.805,404.866 610.805,404.866C627.381,404.866 643.278,411.451 654.999,423.172C666.72,434.893 673.305,450.79 673.305,467.366C673.305,474.268 673.305,481.297 673.305,488.199C673.305,504.775 666.72,520.672 654.999,532.393C648.852,538.54 641.556,543.275 633.616,546.387L668.58,606.946C669.324,608.236 669.324,609.824 668.58,611.113C667.836,612.402 666.46,613.197 664.971,613.197C655.024,613.197 637.369,613.197 628.887,613.197C625.91,613.197 623.159,611.608 621.67,609.03L587.993,550.7ZM269.138,438.202C269.138,440.412 268.26,442.531 266.697,444.094C265.135,445.657 263.015,446.535 260.805,446.535C243.788,446.535 206.638,446.535 206.638,446.535L206.638,609.035C206.638,611.336 204.773,613.202 202.472,613.202C194.488,613.202 177.121,613.202 169.138,613.202C166.837,613.202 164.971,611.336 164.971,609.035C164.971,583.251 164.971,446.535 164.971,446.535L110.805,446.535C108.595,446.535 106.475,445.657 104.912,444.094C103.35,442.531 102.472,440.412 102.472,438.202C102.472,429.382 102.472,415.82 102.472,409.035C102.472,406.734 104.337,404.868 106.638,404.868C129.738,404.868 241.872,404.868 264.972,404.868C267.273,404.868 269.138,406.734 269.138,409.035C269.138,415.82 269.138,429.382 269.138,438.202ZM-230.729,410.013C-229.439,406.899 -226.4,404.868 -223.03,404.869C-215.055,404.869 -200.468,404.87 -192.494,404.871C-189.124,404.871 -186.085,406.901 -184.795,410.015C-172.969,438.566 -115.482,577.353 -103.019,607.44C-102.487,608.726 -102.631,610.193 -103.404,611.35C-104.177,612.507 -105.477,613.202 -106.869,613.202C-115.7,613.202 -131.713,613.202 -140.164,613.202C-143.535,613.202 -146.573,611.171 -147.863,608.057C-151.181,600.048 -157.544,584.686 -160.861,576.677C-162.151,573.563 -165.19,571.532 -168.56,571.532C-184.621,571.532 -230.905,571.532 -246.965,571.532C-250.335,571.532 -253.374,573.563 -254.664,576.677C-257.981,584.686 -264.344,600.046 -267.661,608.055C-268.951,611.169 -271.99,613.199 -275.36,613.199L-308.656,613.199C-310.047,613.199 -311.347,612.504 -312.12,611.347C-312.893,610.19 -313.038,608.724 -312.505,607.438C-300.043,577.351 -242.556,438.565 -230.729,410.013ZM-444.922,596.407C-446.41,598.986 -449.161,600.574 -452.139,600.574C-455.116,600.574 -457.867,598.986 -459.355,596.407C-477.77,564.513 -525.055,482.612 -525.055,482.612L-525.055,609.035C-525.055,611.336 -526.921,613.202 -529.222,613.202C-537.205,613.202 -554.572,613.202 -562.555,613.202C-564.856,613.202 -566.722,611.336 -566.722,609.035C-566.722,582.352 -566.722,435.715 -566.722,409.032C-566.722,407.927 -566.283,406.868 -565.501,406.086C-564.72,405.305 -563.66,404.866 -562.555,404.866C-556.082,404.866 -543.367,404.866 -533.858,404.866C-526.415,404.866 -519.537,408.837 -515.815,415.283C-498.901,444.579 -452.139,525.574 -452.139,525.574C-452.139,525.574 -405.376,444.579 -388.462,415.283C-384.74,408.837 -377.863,404.866 -370.419,404.866C-360.91,404.866 -348.195,404.866 -341.722,404.866C-340.617,404.866 -339.557,405.305 -338.776,406.086C-337.994,406.868 -337.555,407.927 -337.555,409.032C-337.555,435.715 -337.555,582.352 -337.555,609.035C-337.555,611.336 -339.421,613.202 -341.722,613.202C-349.705,613.202 -367.072,613.202 -375.055,613.202C-377.356,613.202 -379.222,611.336 -379.222,609.035C-379.222,586.747 -379.222,482.612 -379.222,482.612C-379.222,482.612 -426.507,564.513 -444.922,596.407ZM339.974,529.866L339.974,561.117C339.974,566.87 344.638,571.534 350.391,571.534C376.414,571.534 443.424,571.534 460.802,571.534C463.103,571.534 464.969,573.399 464.969,575.7C464.969,583.684 464.969,601.05 464.969,609.034C464.969,611.335 463.103,613.2 460.802,613.2C445.615,613.2 391.942,613.2 350.391,613.2C321.626,613.2 298.307,589.882 298.307,561.117C298.307,529.304 298.307,488.765 298.307,456.952C298.307,428.187 321.626,404.868 350.391,404.868C391.942,404.868 445.615,404.868 460.802,404.868C463.103,404.868 464.969,406.734 464.969,409.035C464.969,417.018 464.969,434.385 464.969,442.368C464.969,444.67 463.103,446.535 460.802,446.535C443.424,446.535 376.414,446.535 350.391,446.535C344.638,446.535 339.974,451.199 339.974,456.952L339.974,488.199L439.974,488.199C442.275,488.199 444.141,490.065 444.141,492.366C444.141,500.349 444.141,517.716 444.141,525.699C444.141,528 442.276,529.865 439.974,529.866L339.974,529.866ZM2153.38,405.866C2153.38,405.601 2153.27,405.346 2153.09,405.159C2152.9,404.971 2152.64,404.866 2152.38,404.866C2146.69,404.866 2118.41,404.866 2112.71,404.866C2112.45,404.866 2112.19,404.971 2112.01,405.159C2111.82,405.346 2111.71,405.601 2111.71,405.866C2111.71,420.763 2111.71,597.301 2111.71,612.198C2111.71,612.463 2111.82,612.717 2112.01,612.905C2112.19,613.092 2112.45,613.198 2112.71,613.198C2118.41,613.198 2146.69,613.198 2152.38,613.198C2152.64,613.198 2152.9,613.092 2153.09,612.905C2153.27,612.717 2153.38,612.463 2153.38,612.198C2153.38,597.301 2153.38,420.763 2153.38,405.866ZM1809.01,535.186L1809.01,483.103C1809.01,444.05 1794,444.205 1746.63,444.205C1699.01,444.205 1684.46,444.205 1684.46,483.103L1684.46,535.186C1684.46,574.084 1699.01,574.084 1746.63,574.084C1794,574.084 1809.01,574.239 1809.01,535.186ZM1930.02,529.916L1930.02,571.645L2021.76,571.645C2033.26,571.645 2042.59,562.317 2042.59,550.811C2042.59,547.172 2042.59,543.531 2042.59,540.333C2042.59,537.57 2041.49,534.92 2039.54,532.967C2037.59,531.013 2034.94,529.916 2032.17,529.916L1930.02,529.916ZM-207.763,463.447L-235.274,529.866L-180.251,529.866L-207.763,463.447ZM544.138,446.535L544.138,509.035L610.805,509.032C616.33,509.032 621.629,506.838 625.536,502.931C629.443,499.023 631.638,493.724 631.638,488.199C631.638,481.495 631.638,474.07 631.638,467.366C631.638,461.841 629.443,456.541 625.536,452.634C621.629,448.727 616.33,446.532 610.805,446.532L544.138,446.535ZM2021.72,488.284L2021.72,467.368C2021.72,461.843 2019.53,456.544 2015.62,452.637C2011.71,448.73 2006.41,446.535 2000.89,446.535C1973.83,446.535 1930.02,446.535 1930.02,446.535L1930.02,488.258L2021.72,488.284Z" style="fill:white;"/>
                </g>
            </g>
        </g>
    </g>
</svg>
