<?xml version="1.0" encoding="UTF-8" standalone="no"?>
<!DOCTYPE svg PUBLIC "-//W3C//DTD SVG 1.1//EN" "http://www.w3.org/Graphics/SVG/1.1/DTD/svg11.dtd">
<svg width="100%" height="100%" viewBox="0 0 32 10" version="1.1" xmlns="http://www.w3.org/2000/svg" xmlns:xlink="http://www.w3.org/1999/xlink" xml:space="preserve" xmlns:serif="http://www.serif.com/" style="fill-rule:evenodd;clip-rule:evenodd;stroke-linejoin:round;stroke-miterlimit:2;">
    <g transform="matrix(1,0,0,1,-1416,-142)">
        <g transform="matrix(10.303,0,0,4.08333,-1236.36,-383.833)">
            <path d="M285,94.735C285,94.329 284.87,94 284.709,94C277.221,94 127.779,94 120.291,94C120.13,94 120,94.329 120,94.735L120,214L285,214L285,94.735Z" style="fill:white;"/>
        </g>
        <g transform="matrix(1,0,0,1,-35,-45)">
            <g transform="matrix(1.76316,0,0,1.61905,-1068.42,-95.9524)">
                <path d="M1476,156.853C1476,156.362 1475.82,155.89 1475.5,155.543C1475.18,155.195 1474.75,155 1474.3,155C1464.16,155 1411.84,155 1401.7,155C1401.25,155 1400.82,155.195 1400.5,155.543C1400.18,155.89 1400,156.362 1400,156.853C1400,160.834 1400,170.166 1400,174.147C1400,174.638 1400.18,175.11 1400.5,175.457C1400.82,175.805 1401.25,176 1401.7,176C1411.84,176 1464.16,176 1474.3,176C1474.75,176 1475.18,175.805 1475.5,175.457C1475.82,175.11 1476,174.638 1476,174.147L1476,156.853Z" style="fill:rgb(20,24,31);"/>
            </g>
            <path d="M1455.69,189C1457.81,189 1459.84,189.843 1461.34,191.343C1463.7,193.704 1467,197 1467,197C1467,197 1470.3,193.704 1472.66,191.343C1474.16,189.843 1476.19,189 1478.31,189C1480.51,189 1483,189 1483,189L1483,187L1451,187L1451,189L1455.69,189Z" style="fill:rgb(20,24,31);"/>
        </g>
    </g>
</svg>
