<?xml version="1.0" encoding="UTF-8" standalone="no"?>
<!DOCTYPE svg PUBLIC "-//W3C//DTD SVG 1.1//EN" "http://www.w3.org/Graphics/SVG/1.1/DTD/svg11.dtd">
<svg width="100%" height="100%" viewBox="0 0 30 30" version="1.1" xmlns="http://www.w3.org/2000/svg" xmlns:xlink="http://www.w3.org/1999/xlink" xml:space="preserve" xmlns:serif="http://www.serif.com/" style="fill-rule:evenodd;clip-rule:evenodd;stroke-linecap:round;stroke-linejoin:round;">
    <g transform="matrix(1,0,0,1,-30,-20)">
        <g id="type" transform="matrix(1.25,0,0,1.25,45,35)">
            <g transform="matrix(1,0,0,1,-12,-12)">
                <g transform="matrix(0.5,0,0,0.533333,4.5,1.33333)">
                    <path d="M5,8.75L5,5L25,5L25,8.75" style="fill:none;fill-rule:nonzero;stroke:rgb(133,146,173);stroke-width:1.93px;"/>
                </g>
                <g transform="matrix(0.533333,0,0,0.48,4,1)">
                    <path d="M11.25,25L18.75,25" style="fill:none;fill-rule:nonzero;stroke:rgb(133,146,173);stroke-width:1.97px;"/>
                </g>
                <g transform="matrix(0.48,0,0,0.45,4.8,1.75)">
                    <path d="M15,5L15,25" style="fill:none;fill-rule:nonzero;stroke:rgb(133,146,173);stroke-width:2.15px;"/>
                </g>
                <g transform="matrix(0.666667,5.10269e-18,-6.12323e-18,-0.75,0.666667,35.75)">
                    <path d="M5,25L9,21L13,25L17,21L21,25L25,21L29,25" style="fill:none;stroke:rgb(133,146,173);stroke-width:1.13px;stroke-miterlimit:1.5;"/>
                </g>
            </g>
        </g>
    </g>
</svg>
