<?xml version="1.0" encoding="UTF-8" standalone="no"?>
<!DOCTYPE svg PUBLIC "-//W3C//DTD SVG 1.1//EN" "http://www.w3.org/Graphics/SVG/1.1/DTD/svg11.dtd">
<svg width="100%" height="100%" viewBox="0 0 60 30" version="1.1" xmlns="http://www.w3.org/2000/svg" xmlns:xlink="http://www.w3.org/1999/xlink" xml:space="preserve" xmlns:serif="http://www.serif.com/" style="fill-rule:evenodd;clip-rule:evenodd;stroke-linejoin:round;stroke-miterlimit:2;">
    <g transform="matrix(1,0,0,1,-135,-447)">
        <g transform="matrix(1.02857,0,0,1,-55.2856,0)">
            <rect x="185" y="447" width="58.333" height="30" style="fill:none;"/>
            <g id="mastercard" transform="matrix(1.45833,0,0,1.5,214.167,462)">
                <g transform="matrix(1,0,0,1,-12.5,-10)">
                    <path d="M15.86,18.22C15.86,17.59 16.51,17.38 17.01,17.76L17.22,17.39C16.58,16.89 15.4,17.17 15.4,18.23C15.4,19.33 16.65,19.55 17.22,19.06L17.02,18.7C16.5,19.06 15.86,18.84 15.86,18.22ZM19.57,17.21L19.11,17.21L19.11,17.45C18.65,16.84 17.45,17.18 17.45,18.22C17.45,19.29 18.69,19.59 19.11,18.99L19.11,19.25L19.57,19.25L19.57,17.21ZM23.68,16.38L23.24,16.38L23.24,17.45C22.78,16.85 21.58,17.17 21.58,18.22C21.58,19.3 22.83,19.59 23.24,18.99L23.24,19.25L23.68,19.25L23.68,16.38ZM11.25,19.14L11.13,18.77C10.92,18.88 10.45,19.01 10.45,18.54L10.45,17.62L11.18,17.62L11.18,17.2L10.45,17.2L10.45,16.58L9.99,16.58L9.99,17.2L9.57,17.2L9.57,17.61L10,17.61L10,18.54C10,19.52 10.97,19.34 11.26,19.14L11.25,19.14ZM9.28,18.63C9.28,17.8 8.01,18.17 8.01,17.78C8.01,17.47 8.67,17.52 9.04,17.72L9.22,17.36C8.7,17.02 7.54,17.03 7.54,17.82C7.54,18.62 8.82,18.28 8.82,18.65C8.82,19 8.07,18.97 7.67,18.69L7.47,19.04C8.09,19.47 9.28,19.38 9.28,18.63ZM7.04,17.2L6.6,17.2L6.6,17.44C6.443,17.243 6.202,17.132 5.95,17.14C5.38,17.14 4.95,17.6 4.95,18.21C4.95,18.83 5.38,19.28 5.95,19.28C6.25,19.28 6.45,19.18 6.6,18.98L6.6,19.24L7.04,19.24L7.04,17.2ZM12,18.4L13.53,18.4C13.53,17.5 13.12,17.14 12.56,17.14C11.97,17.14 11.55,17.58 11.55,18.22C11.55,19.35 12.8,19.54 13.43,19L13.22,18.67C12.78,19.03 12.12,18.99 12,18.4ZM4.55,17.97C4.55,17.48 4.23,17.17 3.73,17.15C3.447,17.135 3.176,17.273 3.02,17.51C2.89,17.28 2.66,17.15 2.34,17.15C2.106,17.145 1.884,17.258 1.75,17.45L1.75,17.21L1.3,17.21L1.3,19.24L1.75,19.24C1.75,18.2 1.61,17.57 2.25,17.57C2.82,17.57 2.71,18.13 2.71,19.24L3.15,19.24C3.15,18.23 3.01,17.57 3.65,17.57C4.22,17.57 4.1,18.12 4.1,19.24L4.56,19.24L4.56,17.97L4.55,17.97ZM15.28,17.21C15.03,17.09 14.64,17.11 14.44,17.45L14.44,17.21L13.98,17.21L13.98,19.24L14.44,19.24L14.44,18.1C14.44,17.45 14.97,17.53 15.14,17.63L15.28,17.21ZM21.45,17.21C21.32,17.14 20.84,17.04 20.6,17.45L20.6,17.21L20.17,17.21L20.17,19.24L20.6,19.24L20.6,18.1C20.6,17.48 21.1,17.52 21.32,17.63L21.45,17.21ZM18.53,17.57C18.15,17.57 17.93,17.87 17.93,18.22C17.93,18.58 18.15,18.87 18.53,18.87C18.91,18.87 19.15,18.6 19.15,18.22C19.15,17.86 18.91,17.57 18.53,17.57ZM6.02,17.57C5.62,17.57 5.39,17.87 5.39,18.22C5.39,18.58 5.62,18.87 6.02,18.87C6.38,18.87 6.62,18.6 6.62,18.22C6.62,17.86 6.38,17.57 6.02,17.57ZM23.28,18.22C23.28,18.6 23.03,18.87 22.66,18.87C22.28,18.87 22.04,18.58 22.04,18.22C22.04,17.86 22.28,17.57 22.66,17.57C23.03,17.57 23.28,17.87 23.28,18.22ZM12.54,17.56C12.24,17.56 12.06,17.75 12.02,18.04L13.08,18.04C13.03,17.72 12.83,17.56 12.54,17.56ZM0,7.68C0.01,11.897 3.482,15.363 7.7,15.363C9.207,15.363 10.682,14.92 11.94,14.09C10.028,12.516 8.919,10.166 8.919,7.69C8.919,5.214 10.028,2.864 11.94,1.29C10.682,0.46 9.207,0.017 7.7,0.017C3.486,0.017 0.015,3.476 0,7.69L0,7.68ZM24.89,7.68C24.879,3.464 21.406,0.001 17.19,0.001C15.679,0.001 14.2,0.446 12.94,1.28C16.95,4.58 17.01,10.81 12.94,14.08C14.2,14.915 15.678,15.361 17.19,15.361C21.405,15.361 24.875,11.895 24.88,7.68L24.89,7.68ZM12.44,13.73C14.296,12.277 15.383,10.047 15.383,7.69C15.383,5.333 14.296,3.103 12.44,1.65C10.594,3.109 9.516,5.337 9.516,7.69C9.516,10.043 10.594,12.271 12.44,13.73Z" style="fill:white;"/>
                </g>
            </g>
        </g>
    </g>
</svg>
