<?xml version="1.0" encoding="UTF-8" standalone="no"?>
<!DOCTYPE svg PUBLIC "-//W3C//DTD SVG 1.1//EN" "http://www.w3.org/Graphics/SVG/1.1/DTD/svg11.dtd">
<svg width="100%" height="100%" viewBox="0 0 60 30" version="1.1" xmlns="http://www.w3.org/2000/svg" xmlns:xlink="http://www.w3.org/1999/xlink" xml:space="preserve" xmlns:serif="http://www.serif.com/" style="fill-rule:evenodd;clip-rule:evenodd;stroke-linejoin:round;stroke-miterlimit:2;">
    <g transform="matrix(1,0,0,1,-60,-447)">
        <g transform="matrix(0.88917,0,0,1.28368,-51.1462,-126.803)">
            <rect x="125" y="447" width="67.479" height="23.37" style="fill:none;"/>
            <clipPath id="_clip1">
                <rect x="125" y="447" width="67.479" height="23.37"/>
            </clipPath>
            <g clip-path="url(#_clip1)">
                <g id="visa" transform="matrix(0.131794,0,0,0.0912906,158.739,458.685)">
                    <g transform="matrix(1,0,0,1,-256,-79)">
                        <path d="M330.99,31.9C341.666,31.661 352.275,33.65 362.14,37.74L365.9,39.51L371.53,6.41C363.28,3.31 350.36,0 334.24,0C293.12,0 264.14,20.71 263.91,50.4C263.64,72.33 284.56,84.57 300.36,91.88C316.57,99.38 322.01,104.14 321.93,110.83C321.81,121.05 309,125.73 297.05,125.73C280.38,125.73 271.53,123.43 257.86,117.74L252.5,115.3L246.64,149.48C256.38,153.75 274.36,157.42 293.01,157.61C336.76,157.61 365.19,137.15 365.49,105.43C365.67,88.08 354.57,74.84 330.52,63.98C315.96,56.89 307.06,52.18 307.14,45.03C307.14,38.68 314.7,31.9 330.99,31.9ZM478.33,2.8L446.17,2.8C436.19,2.8 428.76,5.51 424.37,15.47L362.57,155.41L406.28,155.41C406.28,155.41 413.41,136.59 415.02,132.47L468.32,132.53C469.56,137.86 473.39,155.41 473.39,155.41L512,155.41L478.33,2.79L478.33,2.8ZM205,2.61L178.98,155.31L220.59,155.31L246.64,2.61L205,2.61ZM144.08,2.78L103.32,106.92L99,91.21C90.96,72.26 68.14,45.05 41.35,27.91L78.6,155.25L122.63,155.17L188.17,2.77L144.08,2.79L144.08,2.78ZM427,101.21C430.43,92.45 443.58,58.54 443.58,58.54C443.36,58.96 446.98,49.71 449.13,43.96L451.93,57.13L461.58,101.21L427,101.21ZM83.2,13.72C80.78,4.42 73.77,1.65 65.07,1.32L0.54,1.32L0,4.36C50.21,16.54 83.44,45.89 97.22,81.18L83.2,13.72Z" style="fill:white;fill-rule:nonzero;"/>
                    </g>
                </g>
            </g>
        </g>
    </g>
</svg>
