<?xml version="1.0" encoding="UTF-8" standalone="no"?>
<!DOCTYPE svg PUBLIC "-//W3C//DTD SVG 1.1//EN" "http://www.w3.org/Graphics/SVG/1.1/DTD/svg11.dtd">
<svg width="100%" height="100%" viewBox="0 0 60 30" version="1.1" xmlns="http://www.w3.org/2000/svg" xmlns:xlink="http://www.w3.org/1999/xlink" xml:space="preserve" xmlns:serif="http://www.serif.com/" style="fill-rule:evenodd;clip-rule:evenodd;stroke-linejoin:round;stroke-miterlimit:2;">
    <g transform="matrix(1,0,0,1,-210,-447)">
        <g transform="matrix(1.02857,0,0,1,19.7144,0)">
            <rect x="185" y="447" width="58.333" height="30" style="fill:none;"/>
            <clipPath id="_clip1">
                <rect x="185" y="447" width="58.333" height="30"/>
            </clipPath>
            <g clip-path="url(#_clip1)">
                <g id="western-union" transform="matrix(0.146935,0,0,0.151134,214.167,462)">
                    <g transform="matrix(1,0,0,1,-198.5,-46)">
                        <path d="M150.49,77.11C150.49,86.97 143.4,91.89 131.06,91.89C118.73,91.89 111.65,86.96 111.65,77.11L111.65,49.94L127.85,49.94L127.85,76.44C127.85,79.66 129.37,80.9 131.06,80.9C132.76,80.9 134.29,79.66 134.29,76.44L134.29,49.94L150.49,49.94L150.49,77.11ZM268.46,48.87C282.56,48.87 289.57,57.64 289.57,70.37C289.57,83.11 282.57,91.89 268.47,91.89C254.36,91.89 247.34,83.11 247.34,70.38C247.34,57.64 254.36,48.87 268.46,48.87ZM360.08,0.27L354.9,0.27L354.9,90.97L360.07,90.97L360.07,0.26L360.08,0.27ZM396.7,1.12L391.53,1.12L391.53,90.9L396.7,90.9L396.7,1.12ZM235.1,49.95L218.92,49.95L218.92,90.82L235.1,90.82L235.1,49.95ZM301.8,49.94L321.22,49.94L329.88,74.68L330,74.68L330,49.94L343.13,49.94L343.13,90.81L323.72,90.81L315.06,65.91L314.94,65.91L314.94,90.81L301.8,90.81L301.8,49.94ZM163.9,49.94L183.32,49.94L191.97,74.68L192.09,74.68L192.09,49.94L205.22,49.94L205.22,90.81L185.8,90.81L177.14,65.91L177.04,65.91L177.04,90.81L163.9,90.81L163.9,49.94ZM268.46,81.24C270.95,81.24 272.82,79.83 272.82,70.38C272.82,61.14 271.06,59.5 268.46,59.5C265.86,59.5 264.1,61.14 264.1,70.38C264.1,79.83 265.97,81.25 268.46,81.25L268.46,81.24ZM135.08,12.69C135.02,10.13 133.61,9.29 131.51,9.29C128.91,9.29 127.77,10.42 127.77,11.67C127.77,13.13 128.74,13.77 130.43,14.27C133.55,15.17 139.26,16.31 143.4,18.07C148.55,20.21 150.81,23.89 150.81,28.82C150.81,38.84 142.66,43.02 131.11,43.02C121.27,43.02 112.21,39.97 112.21,29.32L127.71,29.32C127.71,30.46 127.95,31.6 128.57,32.44C129.18,33.24 130.21,33.74 131.73,33.74C134.12,33.74 135.64,32.22 135.64,30.4C135.64,28.88 134.45,28.08 132.92,27.63L121.42,24.23C115.14,22.37 112.94,18.57 112.94,13.31C112.94,4.81 119.79,0.01 131.73,0.01C141.93,0.01 149.56,3.18 149.56,12.69L135.08,12.69ZM250.98,1.08L275.15,1.08C283.92,1.08 289.07,3.74 289.07,11.44C289.07,16.14 287.1,19.7 280.97,21.18L280.97,21.28C284.94,21.63 287.1,23.38 287.89,26.5C288.79,30.01 288.69,35.78 290.55,41.96L274.69,41.96C273.73,38.9 273.22,33.74 272.66,30.23C272.31,28.2 271.3,27.4 268.69,27.4L266.83,27.4L266.83,41.96L250.98,41.96L250.98,1.07L250.98,1.08ZM0,1.07L14.5,1.07L17.94,26.77L18.05,26.77L21.85,1.07L38.6,1.07L42.4,26.77L42.5,26.77L45.96,1.07L60.45,1.07L51.61,41.94L34.08,41.94L30.28,15.44L30.17,15.44L26.37,41.94L8.84,41.94L0,1.07ZM70.37,1.07L101.45,1.07L101.45,11.7L85.88,11.7L85.88,16.06L100.26,16.06L100.26,26.7L85.88,26.7L85.88,31.28L101.96,31.28L101.96,41.93L70.37,41.93L70.37,1.07ZM207.37,1.07L238.46,1.07L238.46,11.7L222.9,11.7L222.9,16.06L237.27,16.06L237.27,26.7L222.9,26.7L222.9,31.28L238.97,31.28L238.97,41.93L207.37,41.93L207.37,1.07ZM170.12,12.04L160.05,12.04L160.05,1.07L196.39,1.07L196.39,12.04L186.32,12.04L186.32,41.94L170.12,41.94L170.12,12.04ZM301.8,1.07L321.22,1.07L329.88,25.81L330,25.81L330,1.07L343.13,1.07L343.13,41.94L323.72,41.94L315.06,17.04L314.94,17.04L314.94,41.94L301.8,41.94L301.8,1.07ZM268.18,18.1C271.28,18.1 273.56,17.02 273.56,13.97C273.56,10.97 271.46,10.34 268.29,10.34L266.82,10.34L266.82,18.1L268.18,18.1Z" style="fill:white;fill-rule:nonzero;"/>
                    </g>
                </g>
            </g>
        </g>
    </g>
</svg>
