<?xml version="1.0" encoding="UTF-8" standalone="no"?>
<!DOCTYPE svg PUBLIC "-//W3C//DTD SVG 1.1//EN" "http://www.w3.org/Graphics/SVG/1.1/DTD/svg11.dtd">
<svg width="100%" height="100%" viewBox="0 0 50 50" version="1.1" xmlns="http://www.w3.org/2000/svg" xmlns:xlink="http://www.w3.org/1999/xlink" xml:space="preserve" xmlns:serif="http://www.serif.com/" style="fill-rule:evenodd;clip-rule:evenodd;stroke-linejoin:round;stroke-miterlimit:2;">
    <g transform="matrix(1,0,0,1,-85,-55)">
        <g transform="matrix(1,0,0,1,40,10)">
            <g id="think-out-of-the-box" transform="matrix(0.0976562,0,0,0.0976562,70,70)">
                <g transform="matrix(1,0,0,1,-256,-256)">
                    <clipPath id="_clip1">
                        <rect x="0" y="0" width="512" height="512"/>
                    </clipPath>
                    <g clip-path="url(#_clip1)">
                        <g>
                            <g>
                                <g>
                                    <path d="M431.589,209.978L277.225,298.444C264.078,305.978 247.922,305.978 234.775,298.444L80.411,209.978C75.509,218.386 72.82,228.085 72.82,238.127L72.82,383.089C72.82,393.132 75.509,402.831 80.411,411.238C85.287,419.646 92.325,426.736 101.022,431.745L228.114,504.568C236.76,509.522 246.379,512 256,512C265.647,512 275.266,509.522 283.912,504.568L410.977,431.745C419.701,426.737 426.713,419.646 431.588,411.238C436.49,402.831 439.179,393.132 439.179,383.089L439.179,238.127C439.18,228.086 436.491,218.386 431.589,209.978Z" style="fill:url(#_Linear2);fill-rule:nonzero;"/>
                                    <path d="M234.775,298.445L80.411,209.979C75.509,218.387 72.82,228.086 72.82,238.128L72.82,383.09C72.82,393.133 75.509,402.832 80.411,411.239C85.287,419.647 92.325,426.737 101.022,431.746L228.114,504.569C236.76,509.522 246.379,512 256,512L256,304.095C248.674,304.095 241.349,302.212 234.775,298.445Z" style="fill:url(#_Linear3);fill-rule:nonzero;"/>
                                    <path d="M431.589,209.978L256,310.608L80.411,209.978C89.492,204.239 228.114,116.649 228.114,116.649C245.378,106.739 266.621,106.739 283.911,116.649C283.912,116.65 422.912,204.499 431.589,209.978Z" style="fill:url(#_Linear4);fill-rule:nonzero;"/>
                                    <path d="M431.589,209.978L256,310.608L80.411,209.978C88.996,204.547 228.114,116.649 228.114,116.649C245.378,106.739 266.621,106.739 283.911,116.649C283.912,116.65 422.846,204.465 431.589,209.978Z" style="fill:url(#_Linear5);fill-rule:nonzero;"/>
                                </g>
                                <path d="M439.185,238.132L439.185,383.09C439.185,393.134 436.486,402.836 431.593,411.24C426.71,419.646 419.696,426.734 410.981,431.746L283.915,504.567C275.263,509.524 265.648,511.998 256.001,511.998C255.273,511.998 254.534,511.987 253.806,511.945L72.815,330.956L72.815,238.132C72.815,228.089 75.514,218.388 80.407,209.982L256,310.608L431.593,209.982C436.486,218.388 439.185,228.089 439.185,238.132Z" style="fill:url(#_Linear6);fill-rule:nonzero;"/>
                                <path d="M256,310.611L186.202,380.409C180.379,386.233 171.374,387.433 164.229,383.338L11.845,296.018C6.251,292.813 5.231,285.168 9.79,280.608L80.407,209.981L256,310.611Z" style="fill:url(#_Linear7);fill-rule:nonzero;"/>
                                <path d="M256,310.611L325.798,380.409C331.621,386.233 340.626,387.433 347.771,383.338L500.156,296.019C505.75,292.814 506.77,285.169 502.211,280.609L431.594,209.982L256,310.611Z" style="fill:url(#_Linear8);fill-rule:nonzero;"/>
                            </g>
                            <path d="M135.571,85.622L94.316,0L60.986,0C40.713,0 28.994,22.994 40.908,39.398L67.786,76.408C93.032,111.172 106.63,153.034 106.63,195.999L106.63,224.998L156.902,253.809L156.902,184.611C156.902,149.048 149.435,114.397 135.571,85.622Z" style="fill:url(#_Linear9);fill-rule:nonzero;"/>
                            <path d="M451.014,0L417.684,0L376.429,85.622C362.565,114.398 355.098,149.048 355.098,184.611L355.098,253.809L405.37,224.998L405.37,195.999C405.37,153.034 418.968,111.172 444.215,76.408L471.093,39.399C483.007,22.994 471.288,-0 451.014,-0Z" style="fill:url(#_Linear10);fill-rule:nonzero;"/>
                            <path d="M225.953,184.611C225.953,149.048 223.689,114.398 219.484,85.622L206.977,-0L94.316,-0L135.571,85.622C149.435,114.398 156.902,149.048 156.902,184.611L156.902,253.809L225.953,293.384L225.953,184.611Z" style="fill:url(#_Linear11);fill-rule:nonzero;"/>
                            <path d="M376.429,85.622L417.684,0L305.023,0L292.515,85.622C288.311,114.398 286.046,149.048 286.046,184.611L286.046,293.384L355.097,253.809L355.097,184.611C355.098,149.048 362.565,114.397 376.429,85.622Z" style="fill:url(#_Linear12);fill-rule:nonzero;"/>
                            <path d="M286.047,184.611C286.047,149.048 288.311,114.398 292.516,85.622L305.023,-0L206.977,-0L219.485,85.622C223.689,114.398 225.954,149.048 225.954,184.611L225.954,293.384L256,310.604L286.047,293.384L286.047,184.611Z" style="fill:url(#_Linear13);fill-rule:nonzero;"/>
                            <path d="M106.63,195.998L106.63,224.997L156.902,253.808L156.902,184.611C156.902,171.773 155.914,159.059 154.019,146.692L100.557,146.692C104.561,162.726 106.63,179.277 106.63,195.998Z" style="fill:url(#_Linear14);fill-rule:nonzero;"/>
                            <path d="M156.902,184.611L156.902,253.809L225.953,293.384L225.953,184.611C225.953,171.773 225.653,159.059 225.078,146.692L154.019,146.692C155.914,159.058 156.902,171.773 156.902,184.611Z" style="fill:url(#_Linear15);fill-rule:nonzero;"/>
                            <path d="M225.078,146.692C225.653,159.059 225.953,171.773 225.953,184.611L225.953,293.384L256,310.604L286.047,293.384L286.047,184.611C286.047,171.773 286.347,159.059 286.922,146.692L225.078,146.692Z" style="fill:url(#_Linear16);fill-rule:nonzero;"/>
                            <path d="M286.922,146.692C286.347,159.059 286.047,171.773 286.047,184.611L286.047,293.384L355.098,253.809L355.098,184.611C355.098,171.773 356.086,159.059 357.981,146.692L286.922,146.692Z" style="fill:url(#_Linear17);fill-rule:nonzero;"/>
                            <path d="M357.981,146.692C356.086,159.059 355.098,171.773 355.098,184.611L355.098,253.809L405.37,224.998L405.37,195.999C405.37,179.277 407.44,162.726 411.443,146.692L357.981,146.692Z" style="fill:url(#_Linear18);fill-rule:nonzero;"/>
                        </g>
                    </g>
                </g>
            </g>
        </g>
    </g>
    <defs>
        <linearGradient id="_Linear2" x1="0" y1="0" x2="1" y2="0" gradientUnits="userSpaceOnUse" gradientTransform="matrix(128.801,128.802,-128.802,128.801,299.484,355.419)"><stop offset="0" style="stop-color:rgb(255,206,71);stop-opacity:1"/><stop offset="1" style="stop-color:rgb(255,147,86);stop-opacity:1"/></linearGradient>
        <linearGradient id="_Linear3" x1="0" y1="0" x2="1" y2="0" gradientUnits="userSpaceOnUse" gradientTransform="matrix(149.933,149.933,-149.933,149.933,122.018,312.807)"><stop offset="0" style="stop-color:rgb(255,206,71);stop-opacity:1"/><stop offset="1" style="stop-color:rgb(255,147,86);stop-opacity:1"/></linearGradient>
        <linearGradient id="_Linear4" x1="0" y1="0" x2="1" y2="0" gradientUnits="userSpaceOnUse" gradientTransform="matrix(3.86834e-15,63.1748,-63.1748,3.86834e-15,256,182.028)"><stop offset="0" style="stop-color:rgb(255,147,86);stop-opacity:1"/><stop offset="1" style="stop-color:rgb(255,117,92);stop-opacity:1"/></linearGradient>
        <linearGradient id="_Linear5" x1="0" y1="0" x2="1" y2="0" gradientUnits="userSpaceOnUse" gradientTransform="matrix(4.45841e-15,72.8114,-72.8114,4.45841e-15,256,178.815)"><stop offset="0" style="stop-color:rgb(132,53,97);stop-opacity:0"/><stop offset="1" style="stop-color:rgb(58,47,77);stop-opacity:1"/></linearGradient>
        <linearGradient id="_Linear6" x1="0" y1="0" x2="1" y2="0" gradientUnits="userSpaceOnUse" gradientTransform="matrix(-72.2713,-173.454,173.454,-72.2713,325.003,444.552)"><stop offset="0" style="stop-color:rgb(255,147,86);stop-opacity:0"/><stop offset="1" style="stop-color:rgb(255,117,92);stop-opacity:1"/></linearGradient>
        <linearGradient id="_Linear7" x1="0" y1="0" x2="1" y2="0" gradientUnits="userSpaceOnUse" gradientTransform="matrix(126.387,126.388,-126.388,126.387,90.0126,259.65)"><stop offset="0" style="stop-color:rgb(255,206,71);stop-opacity:1"/><stop offset="1" style="stop-color:rgb(255,147,86);stop-opacity:1"/></linearGradient>
        <linearGradient id="_Linear8" x1="0" y1="0" x2="1" y2="0" gradientUnits="userSpaceOnUse" gradientTransform="matrix(89.9433,102.793,-102.793,89.9433,334.352,244.447)"><stop offset="0" style="stop-color:rgb(255,206,71);stop-opacity:1"/><stop offset="1" style="stop-color:rgb(255,147,86);stop-opacity:1"/></linearGradient>
        <linearGradient id="_Linear9" x1="0" y1="0" x2="1" y2="0" gradientUnits="userSpaceOnUse" gradientTransform="matrix(5.68491e-15,92.8417,-92.8417,5.68491e-15,96.514,99.2236)"><stop offset="0" style="stop-color:rgb(255,206,71);stop-opacity:1"/><stop offset="1" style="stop-color:rgb(255,147,86);stop-opacity:1"/></linearGradient>
        <linearGradient id="_Linear10" x1="0" y1="0" x2="1" y2="0" gradientUnits="userSpaceOnUse" gradientTransform="matrix(3.36568e-15,54.9657,-54.9657,3.36568e-15,415.486,80.6631)"><stop offset="0" style="stop-color:rgb(255,117,92);stop-opacity:1"/><stop offset="1" style="stop-color:rgb(255,65,129);stop-opacity:1"/></linearGradient>
        <linearGradient id="_Linear11" x1="0" y1="0" x2="1" y2="0" gradientUnits="userSpaceOnUse" gradientTransform="matrix(7.65123e-15,124.954,-124.954,7.65123e-15,160.135,87.802)"><stop offset="0" style="stop-color:rgb(228,224,142);stop-opacity:1"/><stop offset="1" style="stop-color:rgb(111,169,83);stop-opacity:1"/></linearGradient>
        <linearGradient id="_Linear12" x1="0" y1="0" x2="1" y2="0" gradientUnits="userSpaceOnUse" gradientTransform="matrix(6.98069e-15,114.003,-114.003,6.98069e-15,351.865,119.211)"><stop offset="0" style="stop-color:rgb(255,65,129);stop-opacity:1"/><stop offset="1" style="stop-color:rgb(132,53,97);stop-opacity:1"/></linearGradient>
        <linearGradient id="_Linear13" x1="0" y1="0" x2="1" y2="0" gradientUnits="userSpaceOnUse" gradientTransform="matrix(7.64926e-15,124.922,-124.922,7.64926e-15,256,64.9587)"><stop offset="0" style="stop-color:rgb(122,203,255);stop-opacity:1"/><stop offset="1" style="stop-color:rgb(69,162,224);stop-opacity:1"/></linearGradient>
        <linearGradient id="_Linear14" x1="0" y1="0" x2="1" y2="0" gradientUnits="userSpaceOnUse" gradientTransform="matrix(2.85509e-15,46.6271,-46.6271,2.85509e-15,128.73,179.887)"><stop offset="0" style="stop-color:rgb(255,147,86);stop-opacity:0"/><stop offset="1" style="stop-color:rgb(255,117,92);stop-opacity:1"/></linearGradient>
        <linearGradient id="_Linear15" x1="0" y1="0" x2="1" y2="0" gradientUnits="userSpaceOnUse" gradientTransform="matrix(5.73772e-15,93.704,-93.704,5.73772e-15,189.986,173.998)"><stop offset="0" style="stop-color:rgb(67,118,90);stop-opacity:0"/><stop offset="1" style="stop-color:rgb(67,118,90);stop-opacity:1"/></linearGradient>
        <linearGradient id="_Linear16" x1="0" y1="0" x2="1" y2="0" gradientUnits="userSpaceOnUse" gradientTransform="matrix(8.20061e-15,133.926,-133.926,8.20061e-15,256,177.745)"><stop offset="0" style="stop-color:rgb(23,68,97);stop-opacity:0"/><stop offset="1" style="stop-color:rgb(23,68,97);stop-opacity:1"/></linearGradient>
        <linearGradient id="_Linear17" x1="0" y1="0" x2="1" y2="0" gradientUnits="userSpaceOnUse" gradientTransform="matrix(2.81759e-15,46.0147,-46.0147,2.81759e-15,322.014,199.727)"><stop offset="0" style="stop-color:rgb(132,53,97);stop-opacity:0"/><stop offset="1" style="stop-color:rgb(58,47,77);stop-opacity:1"/></linearGradient>
        <linearGradient id="_Linear18" x1="0" y1="0" x2="1" y2="0" gradientUnits="userSpaceOnUse" gradientTransform="matrix(4.8546e-15,79.2817,-79.2817,4.8546e-15,383.27,175.068)"><stop offset="0" style="stop-color:rgb(132,53,97);stop-opacity:0"/><stop offset="1" style="stop-color:rgb(58,47,77);stop-opacity:1"/></linearGradient>
    </defs>
</svg>
