<?xml version="1.0" encoding="UTF-8" standalone="no"?>
<!DOCTYPE svg PUBLIC "-//W3C//DTD SVG 1.1//EN" "http://www.w3.org/Graphics/SVG/1.1/DTD/svg11.dtd">
<svg width="100%" height="100%" viewBox="0 0 50 50" version="1.1" xmlns="http://www.w3.org/2000/svg" xmlns:xlink="http://www.w3.org/1999/xlink" xml:space="preserve" xmlns:serif="http://www.serif.com/" style="fill-rule:evenodd;clip-rule:evenodd;stroke-linejoin:round;stroke-miterlimit:2;">
    <g transform="matrix(1,0,0,1,-595,-55)">
        <g transform="matrix(1.125,0,0,1.13475,-5.68434e-14,-85.1064)">
            <rect x="0" y="75" width="1440" height="141" style="fill:rgb(255,0,64);"/>
        </g>
        <g transform="matrix(1,0,0,1,110,10)">
            <g transform="matrix(1.11111,0,0,1.11111,437.778,-2.22222)">
                <circle cx="65" cy="65" r="45" style="fill:white;"/>
            </g>
            <g id="gps--1-" serif:id="gps (1)" transform="matrix(0.0976562,0,0,0.0976562,510,70)">
                <g transform="matrix(1,0,0,1,-256,-256)">
                    <g>
                        <path d="M404.331,512L93.333,512C80.308,512 69.749,501.442 69.749,488.417L69.749,23.583C69.748,10.558 80.308,0 93.333,0L404.331,0C417.356,0 427.915,10.558 427.915,23.583L427.915,488.416C427.915,501.442 417.356,512 404.331,512Z" style="fill:url(#_Linear1);fill-rule:nonzero;"/>
                        <path d="M396.745,466.294L100.919,466.294C90.381,466.294 81.838,457.751 81.838,447.213L81.838,64.787C81.838,54.249 90.381,45.706 100.919,45.706L396.745,45.706C407.283,45.706 415.826,54.249 415.826,64.787L415.826,447.213C415.826,457.752 407.283,466.294 396.745,466.294Z" style="fill:url(#_Linear2);fill-rule:nonzero;"/>
                        <path d="M427.915,130.459L415.654,118.197C398.033,99.645 373.148,90.067 345.542,90.067C292.13,90.067 250.84,131.357 250.84,184.769C250.84,223.389 284.432,282.171 314.968,311.771L427.915,424.717L427.915,130.459Z" style="fill:url(#_Linear3);fill-rule:nonzero;"/>
                        <path d="M387.314,455.466L110.35,455.466C100.415,455.466 92.361,447.413 92.361,437.477L92.361,74.523C92.361,64.588 100.414,56.534 110.35,56.534L387.314,56.534C397.249,56.534 405.303,64.587 405.303,74.523L405.303,437.477C405.303,447.412 397.249,455.466 387.314,455.466Z" style="fill:url(#_Linear4);fill-rule:nonzero;"/>
                        <path d="M282.707,32.108L214.956,32.108C210.254,32.108 206.442,28.297 206.442,23.595C206.442,18.894 210.254,15.082 214.956,15.082L282.707,15.082C287.409,15.082 291.221,18.894 291.221,23.595C291.221,28.298 287.41,32.108 282.707,32.108Z" style="fill:url(#_Linear5);fill-rule:nonzero;"/>
                        <circle cx="316.51" cy="23.595" r="8.513" style="fill:url(#_Linear6);"/>
                        <g>
                            <path d="M99.713,269.399L99.713,298.071L146.087,298.071C168.248,298.071 189.084,306.702 204.754,322.372C220.424,338.042 229.055,358.878 229.055,381.039L229.055,455.463L257.727,455.463L257.727,381.039C257.727,351.219 246.113,323.183 225.028,302.098C203.943,281.012 175.907,269.399 146.087,269.399L99.713,269.399Z" style="fill:rgb(233,237,245);fill-rule:nonzero;"/>
                            <path d="M99.713,284.77L99.713,256.097L209.615,256.097C231.776,256.097 252.612,247.467 268.282,231.796C283.952,216.126 292.583,195.291 292.583,173.129L292.583,56.535L321.255,56.535L321.255,173.13C321.255,202.951 309.642,230.986 288.556,252.072C267.471,273.158 239.435,284.77 209.615,284.77L99.713,284.77Z" style="fill:rgb(233,237,245);fill-rule:nonzero;"/>
                            <rect x="138.031" y="56.537" width="62.883" height="398.926" style="fill:url(#_Linear7);fill-rule:nonzero;"/>
                            <rect x="138.031" y="56.537" width="47.181" height="398.926" style="fill:url(#_Linear8);fill-rule:nonzero;"/>
                            <path d="M138.031,256.001L92.365,256.001L92.365,74.433C92.365,64.549 100.377,56.537 110.261,56.537L138.03,56.537L138.03,256.001L138.031,256.001Z" style="fill:url(#_Linear9);fill-rule:nonzero;"/>
                            <path d="M138.031,307.409L92.361,307.409L92.361,437.569C92.361,447.453 100.373,455.465 110.257,455.465L138.031,455.465L138.031,307.409Z" style="fill:url(#_Linear10);fill-rule:nonzero;"/>
                            <rect x="92.361" y="256" width="45.67" height="51.409" style="fill:rgb(233,237,245);fill-rule:nonzero;"/>
                        </g>
                        <path d="M405.303,110.78C388.854,97.817 368.11,90.068 345.542,90.068C292.13,90.068 250.84,131.358 250.84,184.77C250.84,223.39 284.432,282.172 314.968,311.772L405.302,402.106L405.302,110.78L405.303,110.78Z" style="fill:url(#_Linear11);fill-rule:nonzero;"/>
                        <g>
                            <path d="M442.252,184.769C442.252,238.18 374.158,330.17 345.542,330.17C316.926,330.17 248.832,238.179 248.832,184.769C248.832,131.358 292.13,88.059 345.542,88.059C398.953,88.059 442.252,131.358 442.252,184.769Z" style="fill:url(#_Linear12);fill-rule:nonzero;"/>
                            <circle cx="345.542" cy="184.769" r="83.243" style="fill:url(#_Linear13);"/>
                            <path d="M393.576,139.273C381.518,126.546 364.458,120.614 345.541,120.614C309,120.614 281.385,148.229 281.385,184.77C281.385,203.686 287.317,220.746 300.044,232.805L377.575,310.336C406.966,281.109 440.4,225.84 442.169,187.867L393.576,139.273Z" style="fill:url(#_Linear14);fill-rule:nonzero;"/>
                            <circle cx="345.542" cy="184.769" r="66.163" style="fill:url(#_Linear15);"/>
                        </g>
                    </g>
                </g>
            </g>
        </g>
    </g>
    <defs>
        <linearGradient id="_Linear1" x1="0" y1="0" x2="1" y2="0" gradientUnits="userSpaceOnUse" gradientTransform="matrix(437.687,445.106,-445.106,437.687,97.9315,102.542)"><stop offset="0" style="stop-color:rgb(138,120,137);stop-opacity:1"/><stop offset="0.33" style="stop-color:rgb(134,115,133);stop-opacity:1"/><stop offset="1" style="stop-color:rgb(110,86,110);stop-opacity:1"/></linearGradient>
        <linearGradient id="_Linear2" x1="0" y1="0" x2="1" y2="0" gradientUnits="userSpaceOnUse" gradientTransform="matrix(-397.557,-397.557,397.557,-397.557,480.884,488.052)"><stop offset="0" style="stop-color:rgb(138,120,137);stop-opacity:1"/><stop offset="0.33" style="stop-color:rgb(134,115,133);stop-opacity:1"/><stop offset="1" style="stop-color:rgb(110,86,110);stop-opacity:1"/></linearGradient>
        <linearGradient id="_Linear3" x1="0" y1="0" x2="1" y2="0" gradientUnits="userSpaceOnUse" gradientTransform="matrix(-60.3919,-64.8423,64.8423,-60.3919,469.187,326.211)"><stop offset="0" style="stop-color:rgb(110,86,110);stop-opacity:0"/><stop offset="0.29" style="stop-color:rgb(103,77,102);stop-opacity:0.29"/><stop offset="1" style="stop-color:rgb(89,59,86);stop-opacity:1"/></linearGradient>
        <linearGradient id="_Linear4" x1="0" y1="0" x2="1" y2="0" gradientUnits="userSpaceOnUse" gradientTransform="matrix(223.685,223.685,-223.685,223.685,166.563,173.731)"><stop offset="0" style="stop-color:rgb(205,236,122);stop-opacity:1"/><stop offset="0.22" style="stop-color:rgb(176,233,149);stop-opacity:1"/><stop offset="0.56" style="stop-color:rgb(135,228,187);stop-opacity:1"/><stop offset="0.83" style="stop-color:rgb(110,225,210);stop-opacity:1"/><stop offset="1" style="stop-color:rgb(101,224,219);stop-opacity:1"/></linearGradient>
        <linearGradient id="_Linear5" x1="0" y1="0" x2="1" y2="0" gradientUnits="userSpaceOnUse" gradientTransform="matrix(1.1574e-15,-18.9018,18.9018,1.1574e-15,248.832,35.5137)"><stop offset="0" style="stop-color:rgb(138,120,137);stop-opacity:1"/><stop offset="1" style="stop-color:rgb(110,86,110);stop-opacity:1"/></linearGradient>
        <linearGradient id="_Linear6" x1="0" y1="0" x2="1" y2="0" gradientUnits="userSpaceOnUse" gradientTransform="matrix(-12.039,-12.039,12.039,-12.039,325.874,32.9597)"><stop offset="0" style="stop-color:rgb(138,120,137);stop-opacity:1"/><stop offset="1" style="stop-color:rgb(110,86,110);stop-opacity:1"/></linearGradient>
        <linearGradient id="_Linear7" x1="0" y1="0" x2="1" y2="0" gradientUnits="userSpaceOnUse" gradientTransform="matrix(7.167,-503.086,503.086,7.167,168.491,324.847)"><stop offset="0" style="stop-color:rgb(255,217,69);stop-opacity:1"/><stop offset="0.3" style="stop-color:rgb(255,205,62);stop-opacity:1"/><stop offset="0.86" style="stop-color:rgb(255,173,43);stop-opacity:1"/><stop offset="1" style="stop-color:rgb(255,163,37);stop-opacity:1"/></linearGradient>
        <linearGradient id="_Linear8" x1="0" y1="0" x2="1" y2="0" gradientUnits="userSpaceOnUse" gradientTransform="matrix(101.627,25.4072,-25.4072,101.627,101.853,241.058)"><stop offset="0" style="stop-color:rgb(255,217,69);stop-opacity:1"/><stop offset="0.3" style="stop-color:rgb(255,205,62);stop-opacity:1"/><stop offset="0.86" style="stop-color:rgb(255,173,43);stop-opacity:1"/><stop offset="1" style="stop-color:rgb(255,163,37);stop-opacity:1"/></linearGradient>
        <linearGradient id="_Linear9" x1="0" y1="0" x2="1" y2="0" gradientUnits="userSpaceOnUse" gradientTransform="matrix(92.4562,-269.665,269.665,92.4562,82.9079,257.898)"><stop offset="0" style="stop-color:rgb(255,169,54);stop-opacity:1"/><stop offset="0.41" style="stop-color:rgb(255,133,72);stop-opacity:1"/><stop offset="0.78" style="stop-color:rgb(255,108,84);stop-opacity:1"/><stop offset="1" style="stop-color:rgb(255,99,89);stop-opacity:1"/></linearGradient>
        <linearGradient id="_Linear10" x1="0" y1="0" x2="1" y2="0" gradientUnits="userSpaceOnUse" gradientTransform="matrix(-136.922,72.2412,-72.2412,-136.922,144.078,366.198)"><stop offset="0" style="stop-color:rgb(24,206,251);stop-opacity:1"/><stop offset="0.3" style="stop-color:rgb(43,185,249);stop-opacity:1"/><stop offset="0.73" style="stop-color:rgb(66,160,247);stop-opacity:1"/><stop offset="1" style="stop-color:rgb(74,151,246);stop-opacity:1"/></linearGradient>
        <linearGradient id="_Linear11" x1="0" y1="0" x2="1" y2="0" gradientUnits="userSpaceOnUse" gradientTransform="matrix(-55.7699,-55.7688,55.7688,-55.7699,469.475,320.626)"><stop offset="0" style="stop-color:rgb(205,236,122);stop-opacity:0"/><stop offset="0.24" style="stop-color:rgb(154,213,125);stop-opacity:0.23"/><stop offset="0.6" style="stop-color:rgb(81,180,130);stop-opacity:0.6"/><stop offset="0.87" style="stop-color:rgb(35,159,133);stop-opacity:0.87"/><stop offset="1" style="stop-color:rgb(17,151,134);stop-opacity:1"/></linearGradient>
        <linearGradient id="_Linear12" x1="0" y1="0" x2="1" y2="0" gradientUnits="userSpaceOnUse" gradientTransform="matrix(158.512,158.513,-158.513,158.512,280.664,130.312)"><stop offset="0" style="stop-color:rgb(24,206,251);stop-opacity:1"/><stop offset="0.3" style="stop-color:rgb(43,185,249);stop-opacity:1"/><stop offset="0.73" style="stop-color:rgb(66,160,247);stop-opacity:1"/><stop offset="1" style="stop-color:rgb(74,151,246);stop-opacity:1"/></linearGradient>
        <linearGradient id="_Linear13" x1="0" y1="0" x2="1" y2="0" gradientUnits="userSpaceOnUse" gradientTransform="matrix(-215.788,-215.789,215.789,-215.788,480.574,319.802)"><stop offset="0" style="stop-color:rgb(74,151,246);stop-opacity:0"/><stop offset="1" style="stop-color:rgb(4,105,187);stop-opacity:1"/></linearGradient>
        <linearGradient id="_Linear14" x1="0" y1="0" x2="1" y2="0" gradientUnits="userSpaceOnUse" gradientTransform="matrix(-58.2184,-43.9115,43.9115,-58.2184,423.315,252.791)"><stop offset="0" style="stop-color:rgb(74,151,246);stop-opacity:0"/><stop offset="1" style="stop-color:rgb(4,105,187);stop-opacity:1"/></linearGradient>
        <linearGradient id="_Linear15" x1="0" y1="0" x2="1" y2="0" gradientUnits="userSpaceOnUse" gradientTransform="matrix(56.4997,56.4987,-56.4987,56.4997,323.721,162.949)"><stop offset="0" style="stop-color:rgb(255,217,69);stop-opacity:1"/><stop offset="0.3" style="stop-color:rgb(255,205,62);stop-opacity:1"/><stop offset="0.86" style="stop-color:rgb(255,173,43);stop-opacity:1"/><stop offset="1" style="stop-color:rgb(255,163,37);stop-opacity:1"/></linearGradient>
    </defs>
</svg>
