<?xml version="1.0" encoding="UTF-8" standalone="no"?>
<!DOCTYPE svg PUBLIC "-//W3C//DTD SVG 1.1//EN" "http://www.w3.org/Graphics/SVG/1.1/DTD/svg11.dtd">
<svg width="100%" height="100%" viewBox="0 0 40 40" version="1.1" xmlns="http://www.w3.org/2000/svg" xmlns:xlink="http://www.w3.org/1999/xlink" xml:space="preserve" xmlns:serif="http://www.serif.com/" style="fill-rule:evenodd;clip-rule:evenodd;stroke-linecap:round;stroke-linejoin:round;">
    <g transform="matrix(1,0,0,1,-325,-996)">
        <g transform="matrix(1,0,0,1.25,412.5,-410.7)">
            <g id="image-picture-add.svg" transform="matrix(1.66667,0,0,1.33333,-67.5,1141.36)">
                <g transform="matrix(1,0,0,1,-12,-12)">
                    <path d="M21,13L21,17C21,19.194 19.194,21 17,21L7,21C4.806,21 3,19.194 3,17L3,7C3,4.806 4.806,3 7,3L11,3" style="fill:none;fill-rule:nonzero;stroke:rgb(133,146,173);stroke-width:1px;"/>
                    <circle cx="18" cy="6" r="4" style="fill:none;stroke:rgb(133,146,173);stroke-width:1px;"/>
                    <path d="M19.25,6L16.75,6" style="fill:none;fill-rule:nonzero;stroke:rgb(133,146,173);stroke-width:1px;"/>
                    <path d="M18,4.75L18,7.25" style="fill:none;fill-rule:nonzero;stroke:rgb(133,146,173);stroke-width:1px;"/>
                    <path d="M3,13.001L4.295,11.706C4.747,11.254 5.361,11 6,11C6.639,11 7.253,11.254 7.705,11.706L12,16.001" style="fill:none;fill-rule:nonzero;stroke:rgb(133,146,173);stroke-width:1px;"/>
                    <path d="M7.004,21L13.298,14.706C14.233,13.771 15.773,13.771 16.708,14.706L20.647,18.645" style="fill:none;fill-rule:nonzero;stroke:rgb(133,146,173);stroke-width:1px;"/>
                </g>
            </g>
        </g>
    </g>
</svg>
