<?xml version="1.0" encoding="UTF-8" standalone="no"?>
<!DOCTYPE svg PUBLIC "-//W3C//DTD SVG 1.1//EN" "http://www.w3.org/Graphics/SVG/1.1/DTD/svg11.dtd">
<svg width="100%" height="100%" viewBox="0 0 24 24" version="1.1" xmlns="http://www.w3.org/2000/svg" xmlns:xlink="http://www.w3.org/1999/xlink" xml:space="preserve" xmlns:serif="http://www.serif.com/" style="fill-rule:evenodd;clip-rule:evenodd;stroke-linecap:round;stroke-linejoin:round;">
    <g transform="matrix(0.8,0,0,0.8,0,0)">
        <path d="M26.05,5.763C24.761,4.473 23.011,3.748 21.188,3.748C19.364,3.748 17.614,4.473 16.325,5.763L15,7.088L13.675,5.762C12.386,4.473 10.636,3.748 8.813,3.748C5.04,3.748 1.936,6.853 1.936,10.625C1.936,12.448 2.661,14.198 3.95,15.488L15,26.538L26.05,15.487C27.34,14.199 28.065,12.448 28.065,10.625C28.065,8.802 27.34,7.051 26.05,5.762Z" style="fill:none;fill-rule:nonzero;stroke:white;stroke-width:1.25px;"/>
    </g>
</svg>
