<?xml version="1.0" encoding="UTF-8" standalone="no"?>
<!DOCTYPE svg PUBLIC "-//W3C//DTD SVG 1.1//EN" "http://www.w3.org/Graphics/SVG/1.1/DTD/svg11.dtd">
<svg width="100%" height="100%" viewBox="0 0 24 24" version="1.1" xmlns="http://www.w3.org/2000/svg" xmlns:xlink="http://www.w3.org/1999/xlink" xml:space="preserve" xmlns:serif="http://www.serif.com/" style="fill-rule:evenodd;clip-rule:evenodd;stroke-linecap:round;stroke-linejoin:round;stroke-miterlimit:1.5;">
    <g transform="matrix(1.63636,0,0,1.2,1.36364,-1.8)">
        <path d="M12,5.667C12,5.225 11.871,4.801 11.642,4.488C11.413,4.176 11.102,4 10.778,4L2.222,4C1.898,4 1.587,4.176 1.358,4.488C1.129,4.801 1,5.225 1,5.667L1,17.333C1,17.775 1.129,18.199 1.358,18.512C1.587,18.824 1.898,19 2.222,19L10.778,19C11.102,19 11.413,18.824 11.642,18.512C11.871,18.199 12,17.775 12,17.333L12,5.667Z" style="fill:none;stroke:white;stroke-width:0.7px;"/>
    </g>
    <g transform="matrix(1,0,0,0.75,0,2.75)">
        <path d="M12,7L12,11" style="fill:none;stroke:white;stroke-width:1.13px;"/>
    </g>
    <g transform="matrix(1,-1.89478e-15,-2.03012e-15,2,4,-6)">
        <path d="M12,7L12,11" style="fill:none;stroke:white;stroke-width:0.63px;"/>
    </g>
    <g transform="matrix(1,0,0,1.25,-4,-0.75)">
        <path d="M12,7L12,11" style="fill:none;stroke:white;stroke-width:0.88px;"/>
    </g>
</svg>
