<svg xmlns="http://www.w3.org/2000/svg" width="43.589" height="43.634" viewBox="0 0 43.589 43.634">
  <path id="_11" data-name="11" d="M186.267,170.855l.883-.883a33.774,33.774,0,0,0,9.919-23.039l.094-3.409-3.408.094a33.778,33.778,0,0,0-23.04,9.919l-.894.9a9.071,9.071,0,0,0-11.238,1.251l-5.009,5.009,4.993,4.993,3.889,3.889,8.7,8.7L175,182.121l5.038,5.037,5.009-5.009a9.072,9.072,0,0,0,1.218-11.294M156.4,160.692l3.6-3.6a7.071,7.071,0,0,1,8.365-1.207l-8.381,8.381Zm16.17,16.17-8.7-8.7-2.475-2.475,8.588-8.588,1.414-1.414.732-.732a31.787,31.787,0,0,1,21.681-9.333l1.295-.036-.036,1.295a31.783,31.783,0,0,1-9.333,21.681L175,179.292Zm7.468,7.468-3.624-3.624,8.393-8.392a7.069,7.069,0,0,1-1.174,8.421Z" transform="translate(-153.574 -143.524)" fill="#83b752"/>
</svg>
