<svg xmlns="http://www.w3.org/2000/svg" width="43.589" height="43.634" viewBox="0 0 43.589 43.634">
  <path id="_5" data-name="5" d="M285.7,277.469l.883-.883a33.774,33.774,0,0,0,9.919-23.039l.094-3.409-3.408.094a33.778,33.778,0,0,0-23.04,9.919l-.894.895a9.071,9.071,0,0,0-11.238,1.251l-5.009,5.009L258,272.3l3.889,3.889,8.7,8.7,3.844,3.845,5.038,5.037,5.009-5.009a9.072,9.072,0,0,0,1.218-11.294m-29.865-10.163,3.6-3.6A7.071,7.071,0,0,1,267.8,262.5l-8.381,8.381Zm16.17,16.17-8.7-8.7-2.475-2.475,8.588-8.588,1.414-1.414.732-.732a31.787,31.787,0,0,1,21.681-9.333l1.295-.036-.036,1.295a31.783,31.783,0,0,1-9.333,21.681l-10.734,10.734Zm7.468,7.468-3.624-3.624,8.393-8.392a7.069,7.069,0,0,1-1.174,8.421Z" transform="translate(-253.01 -250.138)" fill="#83b752"/>
</svg>
