<?xml version="1.0" encoding="UTF-8" standalone="no"?>
<!DOCTYPE svg PUBLIC "-//W3C//DTD SVG 1.1//EN" "http://www.w3.org/Graphics/SVG/1.1/DTD/svg11.dtd">
<svg width="100%" height="100%" viewBox="0 0 24 24" version="1.1" xmlns="http://www.w3.org/2000/svg" xmlns:xlink="http://www.w3.org/1999/xlink" xml:space="preserve" xmlns:serif="http://www.serif.com/" style="fill-rule:evenodd;clip-rule:evenodd;stroke-linecap:round;stroke-linejoin:round;">
    <g>
        <path d="M15.5,2.5L19.5,2.5C20.597,2.5 21.5,3.403 21.5,4.5L21.5,8.5C21.5,9.597 20.597,10.5 19.5,10.5L15.5,10.5C14.403,10.5 13.5,9.597 13.5,8.5L13.5,4.5C13.5,3.4 14.4,2.5 15.5,2.5ZM4.5,13.5L8.5,13.5C9.597,13.5 10.5,14.403 10.5,15.5L10.5,19.5C10.5,20.597 9.597,21.5 8.5,21.5L4.5,21.5C3.403,21.5 2.5,20.597 2.5,19.5L2.5,15.5C2.5,14.4 3.4,13.5 4.5,13.5ZM2.5,8.5L2.5,4.5C2.5,3.4 3.4,2.5 4.5,2.5L8.5,2.5C9.597,2.5 10.5,3.403 10.5,4.5L10.5,8.5C10.5,9.597 9.597,10.5 8.5,10.5L4.5,10.5C3.403,10.5 2.5,9.597 2.5,8.5ZM13.5,19.5L13.5,15.5C13.5,14.4 14.4,13.5 15.5,13.5L19.5,13.5C20.597,13.5 21.5,14.403 21.5,15.5L21.5,19.5C21.5,20.597 20.597,21.5 19.5,21.5L15.5,21.5C14.403,21.5 13.5,20.597 13.5,19.5Z" style="fill:none;stroke:white;stroke-width:1px;"/>
    </g>
</svg>
