<?xml version="1.0" encoding="UTF-8" standalone="no"?>
<!DOCTYPE svg PUBLIC "-//W3C//DTD SVG 1.1//EN" "http://www.w3.org/Graphics/SVG/1.1/DTD/svg11.dtd">
<svg width="100%" height="100%" viewBox="0 0 30 30" version="1.1" xmlns="http://www.w3.org/2000/svg" xmlns:xlink="http://www.w3.org/1999/xlink" xml:space="preserve" xmlns:serif="http://www.serif.com/" style="fill-rule:evenodd;clip-rule:evenodd;stroke-linecap:round;stroke-linejoin:round;">
    <g transform="matrix(1,0,0,1,-30,-110.038)">
        <g transform="matrix(1,0,0,1,0,20)">
            <g id="smartphone.svg" transform="matrix(1.25,0,0,1.25,45,105.038)">
                <g transform="matrix(1,0,0,1,-12,-12)">
                    <g>
                        <path d="M8,3L16,3C17.097,3 18,3.903 18,5L18,19C18,20.097 17.097,21 16,21L8,21C6.903,21 6,20.097 6,19L6,5C6,3.9 6.9,3 8,3ZM14,18L10,18" style="fill:none;stroke:white;stroke-width:1px;"/>
                    </g>
                </g>
            </g>
        </g>
    </g>
</svg>
