<svg xmlns="http://www.w3.org/2000/svg" width="50" height="36.541" viewBox="0 0 50 36.541">
  <g id="click" transform="translate(50 0) rotate(90)">
    <g id="Сгруппировать_213" data-name="Сгруппировать 213" transform="translate(0 0)">
      <g id="Черное">
        <path id="Контур_1374" data-name="Контур 1374" d="M126.872,71.83l2.04,0V87.6l-2.04-.006.007.01c-.007-.115-.019-.23-.019-.346q0-7.528,0-15.057c0-.127.014-.253.02-.38Z" transform="translate(-92.371 -51.19)" fill="#e55030" fill-rule="evenodd"/>
        <path id="Контур_1375" data-name="Контур 1375" d="M43.713,0q0,1.078-.005,2.156l.01-.008H39.563l.011.009q0-1.078,0-2.156Z" transform="translate(-28.807)" fill="#e55030" fill-rule="evenodd"/>
        <path id="Контур_1376" data-name="Контур 1376" d="M61.2,149.459c.008.092.024.183.024.275q0,3.281,0,6.561c0,.069-.007.138-.012.234H39.6v-.4q0-3.124,0-6.249c0-.138-.015-.275-.024-.414l-.007.009h2.112v4.9H58.656v-4.9h2.56Z" transform="translate(-28.814 -106.528)" fill="#e55030" fill-rule="evenodd"/>
        <path id="Контур_1377" data-name="Контур 1377" d="M24.579,28.2H26.61V7.486h2.054l-.011-.009c.011.137.033.275.033.412q0,14.289,0,28.578v.375H26.61V30.333H24.587V28.185Z" transform="translate(-17.897 -5.329)" fill="#e55030" fill-rule="evenodd"/>
        <path id="Контур_1378" data-name="Контур 1378" d="M2.019,78.467H0V71.982H6.682v2.19l.008-.011H2.031c0,.3,0,.537,0,.779q-.01,1.768-.02,3.536Z" transform="translate(0 -51.306)" fill="#e55030" fill-rule="evenodd"/>
        <path id="Контур_1379" data-name="Контур 1379" d="M121.252,126.731q-.007,3.053-.015,6.106c0,.136,0,.271,0,.423h-2.1l.012.013V126.74h2.105Z" transform="translate(-86.752 -90.329)" fill="#e55030" fill-rule="evenodd"/>
        <path id="Контур_1380" data-name="Контур 1380" d="M17.689,107.175H15.129a1.083,1.083,0,0,1-.026-.15q0-2.287,0-4.573a.906.906,0,0,1,.021-.136l-.009.007h2.564v4.863Z" transform="translate(-10.996 -72.927)" fill="#e55030" fill-rule="evenodd"/>
        <path id="Контур_1381" data-name="Контур 1381" d="M26.624,123.611H24.589v-4.38l-.011.011h2.037v4.379Z" transform="translate(-17.896 -84.983)" fill="#e55030" fill-rule="evenodd"/>
        <path id="Контур_1382" data-name="Контур 1382" d="M34.117,138.785H32.08v-4.307l-.009.011h2.072c0,1.07,0,2.118,0,3.167,0,.379-.02.758-.03,1.138Z" transform="translate(-23.352 -95.85)" fill="#e55030" fill-rule="evenodd"/>
        <path id="Контур_1383" data-name="Контур 1383" d="M9.515,96.787H7.407V94.559l-.007.009H9.506v2.225Z" transform="translate(-5.388 -67.398)" fill="#e55030" fill-rule="evenodd"/>
        <path id="Контур_1384" data-name="Контур 1384" d="M54.81,7.488h2.062v9.249h4.644v2.222l.011-.013H56.866v9.208H54.819V7.48Z" transform="translate(-39.909 -5.331)" fill="#e55030" fill-rule="evenodd"/>
        <path id="Контур_1385" data-name="Контур 1385" d="M79.478,47.375c.108-.009.216-.027.324-.027q2.754,0,5.506,0c.107,0,.213.01.352.018v2.159l.011-.01H81.52v7.058H79.489V47.361Z" transform="translate(-57.871 -33.747)" fill="#e55030" fill-rule="evenodd"/>
        <path id="Контур_1386" data-name="Контур 1386" d="M102.219,54.9h4.6v2.151l.01-.007h-2.576v7.067h-2.025V54.893Z" transform="translate(-74.429 -39.126)" fill="#e55030" fill-rule="evenodd"/>
        <path id="Контур_1387" data-name="Контур 1387" d="M119.15,62.4h2.109v2.712l.008-.011h-2.107V62.392Z" transform="translate(-86.758 -44.47)" fill="#e55030" fill-rule="evenodd"/>
      </g>
    </g>
  </g>
</svg>
