<svg xmlns="http://www.w3.org/2000/svg" width="266.414" height="260.79" viewBox="0 0 266.414 260.79">
  <g id="click" transform="translate(-14.02 115.363) rotate(-48)">
    <g id="Сгруппировать_213" data-name="Сгруппировать 213">
      <g id="Черное">
        <path id="Контур_1374" data-name="Контур 1374" d="M126.921,71.872l9.72-.022v75.164l-9.723-.03.032.047c-.032-.549-.091-1.1-.091-1.647q0-35.876,0-71.754c0-.6.065-1.207.1-1.811Z" transform="translate(37.493 26.49)" fill="#1c398e" fill-rule="evenodd"/>
        <path id="Контур_1375" data-name="Контур 1375" d="M59.34,0q-.012,5.137-.025,10.276l.045-.037q-9.9,0-19.8,0l.051.041Q39.606,5.139,39.6,0Z" transform="translate(11.693 0)" fill="#1c398e" fill-rule="evenodd"/>
        <path id="Контур_1376" data-name="Контур 1376" d="M142.659,149.459c.038.437.115.873.115,1.309q.008,15.633,0,31.267c0,.328-.032.658-.058,1.113H39.722v-1.922q0-14.888-.006-29.778c0-.656-.073-1.313-.113-1.971l-.031.041H49.636v23.341h80.881V149.525h12.2Z" transform="translate(11.695 55.126)" fill="#1c398e" fill-rule="evenodd"/>
        <path id="Контур_1377" data-name="Контур 1377" d="M24.579,106.211h9.676V7.519h9.787l-.051-.042c.054.654.159,1.309.159,1.963q.014,68.094.006,136.188v1.788h-9.9V116.4H24.618V106.16Z" transform="translate(7.264 2.758)" fill="#1c398e" fill-rule="evenodd"/>
        <path id="Контур_1378" data-name="Контур 1378" d="M9.619,102.886H0v-30.9H31.843V82.419l.039-.052H9.68c0,1.409.005,2.56,0,3.712q-.047,8.424-.093,16.852Z" transform="translate(0 26.55)" fill="#1c398e" fill-rule="evenodd"/>
        <path id="Контур_1379" data-name="Контур 1379" d="M129.2,126.731q-.033,14.549-.07,29.1c0,.646,0,1.292,0,2.014h-9.987l.058.064v-31.13h10.031Z" transform="translate(35.212 46.743)" fill="#1c398e" fill-rule="evenodd"/>
        <path id="Контур_1380" data-name="Контур 1380" d="M27.433,125.471H15.23a5.162,5.162,0,0,1-.123-.716q-.008-10.9,0-21.791a4.318,4.318,0,0,1,.1-.649l-.041.033H27.379v23.173Z" transform="translate(4.463 37.738)" fill="#1c398e" fill-rule="evenodd"/>
        <path id="Контур_1381" data-name="Контур 1381" d="M34.328,140.1h-9.7V119.231l-.054.052h9.708v20.869Z" transform="translate(7.264 43.977)" fill="#1c398e" fill-rule="evenodd"/>
        <path id="Контур_1382" data-name="Контур 1382" d="M41.82,155H32.114V134.478l-.043.052h9.872c0,5.1.014,10.1-.008,15.091-.006,1.808-.1,3.614-.145,5.422Z" transform="translate(9.479 49.6)" fill="#1c398e" fill-rule="evenodd"/>
        <path id="Контур_1383" data-name="Контур 1383" d="M17.478,105.176H7.432V94.559L7.4,94.6H17.435v10.6Z" transform="translate(2.187 34.877)" fill="#1c398e" fill-rule="evenodd"/>
        <path id="Контур_1384" data-name="Контур 1384" d="M54.81,7.517h9.825V51.595H86.768V62.184l.054-.063H64.609V106H54.854V7.48Z" transform="translate(16.199 2.759)" fill="#1c398e" fill-rule="evenodd"/>
        <path id="Контур_1385" data-name="Контур 1385" d="M79.478,47.48c.516-.044,1.03-.127,1.544-.127q13.123-.012,26.24,0c.508,0,1.013.049,1.676.085V57.726l.051-.049H89.209V91.309H79.532V47.416Z" transform="translate(23.49 17.463)" fill="#1c398e" fill-rule="evenodd"/>
        <path id="Контур_1386" data-name="Контур 1386" d="M102.219,54.943h21.935v10.25l.045-.036H111.921V98.836h-9.652V54.893Z" transform="translate(30.21 20.246)" fill="#1c398e" fill-rule="evenodd"/>
        <path id="Контур_1387" data-name="Контур 1387" d="M119.15,62.427H129.2V75.349l.036-.053H119.194v-12.9Z" transform="translate(35.214 23.012)" fill="#1c398e" fill-rule="evenodd"/>
      </g>
      <path id="Контур_1388" data-name="Контур 1388" d="M152.221,82.646V95.551h10.042c-.032.6-.1,1.206-.1,1.811q0,35.879,0,71.754c0,.549.058,1.1.091,1.645H152.225v31.13h-12.2v23.336H59.145V201.886H49.082c.048-1.808.139-3.614.145-5.422.022-5,.008-9.991.008-15.091H39.362V160.5H29.654V137.328H17.435v-10.6H7.4q.045-8.425.093-16.852c.005-1.153,0-2.3,0-3.712H29.7V116.4h9.641v31.019h9.9v-1.789q0-68.094-.006-136.187c0-.654-.1-1.309-.159-1.964l19.8.005V106H78.62V62.121h22.213v43.893h9.679V72.382h19.779v43.942h9.652V82.646Z" transform="translate(2.187 2.757)" fill="#f3f3f3" fill-rule="evenodd"/>
    </g>
  </g>
</svg>
