<?xml version="1.0" encoding="utf-8"?>
<!-- Generator: Adobe Illustrator 22.0.1, SVG Export Plug-In . SVG Version: 6.00 Build 0)  -->
<svg version="1.1" id="Слой_1" xmlns="http://www.w3.org/2000/svg" xmlns:xlink="http://www.w3.org/1999/xlink" x="0px" y="0px"
	 viewBox="0 0 234.6 50" style="enable-background:new 0 0 234.6 50;" xml:space="preserve">
<style type="text/css">
	.st0{fill:#1B398F;}
	.st1{fill:#E55030;}
	.st2{fill:#2B2422;}
</style>
<g>
	<g>
		<path id="SVGID_1_" class="st0" d="M4.9,25.2c-0.2-9.9,15.4-9.9,15.2-0.1c0.1,4.9-3.7,7.4-7.6,7.4S4.8,30.1,4.9,25.2 M3.7,16.3
			C1.2,18.8,0,21.8,0,25.1v22.5c-0.1,3.2,5,3.1,4.9,0V35.1c7.8,6.4,20.5,0.2,20.1-10c0.3-7.4-6.4-12.6-12.9-12.6
			C9.1,12.7,6,13.8,3.7,16.3"/>
	</g>
</g>
<g>
	<g>
		<path id="SVGID_3_" class="st0" d="M28.7,2.5V35c-0.1,2.2,2.7,3.4,4.3,1.8c0.5-0.5,0.7-1,0.7-1.8V2.5c0-1.6-1.2-2.4-2.5-2.4
			C29.9,0.2,28.7,0.9,28.7,2.5"/>
	</g>
</g>
<g>
	<g>
		<path id="SVGID_5_" class="st0" d="M57.1,25c0.1,3.9-2.3,7.7-7.2,7.6c-5.2,0.2-7.6-3.7-7.5-7.6c0.1-3.8,2.6-7.7,7.5-7.6
			C54.6,17.3,57.1,21.2,57.1,25 M40.9,16.2c-11,10.8,4.3,28,16.4,18.8c0.1,3.1,5,3.3,4.9,0v-9.8c0.4-7.5-6.1-12.6-12.7-12.6
			C46.4,12.5,43.3,13.6,40.9,16.2"/>
	</g>
</g>
<g>
	<g>
		<path id="SVGID_7_" class="st0" d="M65.2,20c0,3.8,2.4,7.6,7.3,7.5c5.6,0.8,0.6,8.5-2.5,3.6c-3.7-5.6-7.4,1.4-2.2,4.8
			c7.1,6,16.6-4.9,10-11.2c-1.9-2.4-4.9-1.5-7.1-3c-2.9-2.8,2.7-6.4,4.1-3c4.5,6.8,8.8-5.7-2.3-6.3c-0.1,0-0.1,0-0.2,0
			C67.7,12.5,65.3,16.2,65.2,20"/>
	</g>
</g>
<g>
	<g>
		<path id="SVGID_9_" class="st0" d="M90.8,0c-4.3-0.2-1.9,10.2-2.4,12.5c-0.3,0-0.7,0-1.1,0c-2.1-0.1-5-0.2-5,2.5
			c-0.1,2.7,2.9,2.6,5,2.5c0.4,0,0.7,0,1,0v17.6c-0.1,1.2,1.1,2.6,2.4,2.5c1.4,0.1,2.6-1.3,2.5-2.5V17.4h3.5c1.6,0,2.4-1.2,2.4-2.5
			s-0.8-2.5-2.4-2.5h-3.5C92.7,10.3,95.1,0,91,0C90.9,0,90.9,0,90.8,0"/>
	</g>
</g>
<g>
	<g>
		<path id="SVGID_11_" class="st0" d="M101.9,14.9c0.2,0.6-0.7,22.4,0.7,21.9c1.4,1.6,4.3,0.4,4.2-1.8V14.9c0-1.6-1.2-2.4-2.5-2.4
			C103.2,12.5,101.9,13.3,101.9,14.9 M104.5,2.5c-1.6,0-2.4,1.2-2.4,2.5s0.8,2.5,2.4,2.5c1.6,0.1,2.4-1.2,2.4-2.5
			C106.8,3.7,106,2.5,104.5,2.5L104.5,2.5"/>
	</g>
</g>
<g>
	<g>
		<path id="SVGID_13_" class="st0" d="M110.8,2.5V35c-0.1,2.2,2.7,3.4,4.3,1.8c0.5-0.5,0.7-1,0.7-1.8V2.5c0-1.6-1.2-2.4-2.5-2.4
			C112,0.2,110.8,0.9,110.8,2.5"/>
	</g>
</g>
<g>
	<g>
		<path id="SVGID_15_" class="st0" d="M119.6,14.9V35c0,1.4,1.1,2.5,2.5,2.5c1.3,0,2.5-1.1,2.4-2.5V14.9c0-1.6-1.2-2.4-2.5-2.4
			C120.8,12.5,119.6,13.3,119.6,14.9 M122.1,2.5c-1.6,0-2.4,1.2-2.4,2.5s0.8,2.5,2.4,2.5c1.6,0.1,2.4-1.2,2.4-2.5
			S123.7,2.5,122.1,2.5C122.2,2.5,122.1,2.5,122.1,2.5"/>
	</g>
</g>
<g>
	<g>
		<path id="SVGID_17_" class="st0" d="M128.2,35c-0.1,3.2,5.1,3.2,4.9,0V25c-0.2-9.9,15.4-9.8,15.2,0V35c-0.1,3.2,5,3.2,4.9,0
			c0.6-9.8,0.5-22.2-12.6-22.6C127.8,12.8,127.7,25.1,128.2,35"/>
	</g>
</g>
<g>
	<path class="st1" d="M197.9,35c0.2,3.3-4.8,3.1-4.9,0c-12.1,9.3-27.4-8-16.4-18.8c7.4-8,21.8-2.1,21.3,8.9V35L197.9,35z
		 M185.6,32.6c9.7,0.3,9.6-15.3,0-15.1C175.8,17.2,175.4,32.9,185.6,32.6"/>
	<path class="st1" d="M206.3,35c0.1,3.2-5,3.2-4.9,0V25c-1.6-6.9,12.5-17.8,15.1-10.1c0,1.2-1.1,2.6-2.5,2.5
		C204.7,17.2,206.4,29,206.3,35"/>
	<path class="st1" d="M232.2,12.5c3.2-0.1,3.2,5,0,4.9h-3.5V35c0,1.2-1.1,2.6-2.5,2.5c-1.3,0.1-2.5-1.3-2.4-2.5V17.4
		c-2,0-6.1,0.6-6-2.5c-0.1-3.1,4.1-2.4,6-2.4c0.6-2.3-1.9-12.7,2.4-12.5c4.3-0.3,1.9,10.2,2.5,12.5H232.2z"/>
</g>
<g>
	<path class="st2" d="M34.6,49.8h-0.9l-1.5-5.2c-0.1-0.2-0.2-0.5-0.2-0.9c-0.1-0.3-0.2-0.6-0.2-0.6c-0.1,0.5-0.2,1-0.4,1.5l-1.5,5.2
		h-0.9l-2.1-7.7h1l1.2,4.8c0.2,0.6,0.3,1.3,0.4,1.9c0.1-0.6,0.2-1.3,0.4-1.9l1.4-4.7h1l1.4,4.8c0.2,0.6,0.3,1.1,0.4,1.9
		c0.1-0.5,0.2-1.1,0.4-1.9l1.2-4.8h1L34.6,49.8z"/>
	<path class="st2" d="M57.6,49.8h-4.3v-7.7h4.3v0.8h-3.4v2.5h3.2v0.8h-3.2V49h3.4V49.8z"/>
	<path class="st2" d="M74.8,42.1h2.2c1,0,1.8,0.2,2.3,0.5c0.5,0.3,0.7,0.8,0.7,1.4c0,0.5-0.2,0.8-0.4,1.1c-0.2,0.3-0.6,0.5-1.1,0.6
		v0.1c1.2,0.2,1.8,0.8,1.8,1.9c0,0.7-0.2,1.2-0.7,1.6c-0.5,0.4-1.1,0.6-1.9,0.6h-2.7L74.8,42.1z M75.6,45.4h1.4
		c0.6,0,1.1-0.1,1.4-0.3c0.2-0.2,0.4-0.6,0.4-1c0-0.4-0.2-0.7-0.5-1c-0.3-0.2-0.8-0.3-1.4-0.3h-1.3V45.4z M75.6,46.2v2.9h1.6
		c0.6,0,1.1-0.1,1.4-0.4c0.3-0.2,0.5-0.6,0.5-1.1s-0.2-0.8-0.5-1c-0.3-0.2-0.8-0.3-1.4-0.3L75.6,46.2z"/>
	<path class="st2" d="M119.9,47.8c0,0.6-0.2,1.2-0.7,1.6c-0.5,0.4-1.1,0.6-2,0.6c-0.9,0-1.6-0.1-2.1-0.3v-0.9c0.3,0.2,0.6,0.2,1,0.3
		c0.4,0.1,0.7,0.1,1.1,0.1c0.6,0,1-0.1,1.4-0.3c0.3-0.2,0.5-0.6,0.5-1c0-0.2-0.1-0.5-0.2-0.6c-0.1-0.2-0.3-0.3-0.6-0.5
		c-0.2-0.2-0.6-0.3-1.1-0.5c-0.7-0.2-1.2-0.6-1.5-0.9s-0.5-0.8-0.5-1.4s0.2-1,0.6-1.4c0.5-0.3,1-0.6,1.8-0.6c0.8,0,1.4,0.2,2.1,0.4
		l-0.2,0.8c-0.6-0.2-1.3-0.4-1.9-0.4c-0.5,0-0.9,0.1-1.1,0.3c-0.2,0.2-0.4,0.5-0.4,0.9c0,0.2,0.1,0.5,0.2,0.6
		c0.1,0.2,0.2,0.3,0.5,0.5c0.2,0.2,0.6,0.3,1,0.5c0.8,0.3,1.4,0.6,1.7,1C119.7,46.8,119.9,47.2,119.9,47.8z"/>
	<path class="st2" d="M139.2,49.8h-0.9v-6.9h-2.4v-0.8h5.8v0.8h-2.4L139.2,49.8L139.2,49.8z"/>
	<path class="st2" d="M164.1,42.1v5c0,0.9-0.2,1.6-0.8,2.1s-1.3,0.7-2.2,0.7c-1,0-1.7-0.2-2.2-0.7s-0.7-1.2-0.7-2.1v-5h0.9v5.1
		c0,0.6,0.2,1.1,0.6,1.4c0.3,0.3,0.9,0.5,1.5,0.5s1.1-0.2,1.5-0.5c0.3-0.3,0.6-0.8,0.6-1.5V42L164.1,42.1L164.1,42.1z"/>
	<path class="st2" d="M187.8,45.8c0,1.3-0.3,2.3-1,2.9c-0.7,0.6-1.7,1-3,1h-2.2v-7.7h2.3c1.2,0,2.2,0.3,2.8,1
		C187.4,43.7,187.8,44.6,187.8,45.8z M186.8,45.9c0-1-0.2-1.8-0.7-2.3c-0.5-0.5-1.3-0.8-2.3-0.8h-1.3v6.2h1.1c1,0,1.9-0.2,2.4-0.8
		C186.6,47.7,186.8,46.9,186.8,45.9z"/>
	<path class="st2" d="M204.9,49.8v-7.7h0.9v7.7L204.9,49.8z"/>
	<path class="st2" d="M230.1,45.9c0,1.2-0.3,2.2-1,2.9c-0.6,0.7-1.5,1-2.6,1c-1.1,0-2-0.3-2.7-1c-0.6-0.7-1-1.7-1-3s0.3-2.3,1-2.9
		c0.6-0.7,1.5-1,2.7-1s2,0.3,2.6,1C229.8,43.7,230.1,44.6,230.1,45.9z M223.9,45.9c0,1,0.2,1.9,0.6,2.4c0.5,0.6,1.1,0.8,1.9,0.8
		c0.9,0,1.5-0.2,1.9-0.8c0.4-0.6,0.6-1.4,0.6-2.4c0-1-0.2-1.9-0.6-2.3c-0.4-0.5-1-0.8-1.9-0.8s-1.5,0.2-1.9,0.8
		C224.2,44.1,223.9,44.9,223.9,45.9z"/>
</g>
</svg>
