<svg id="Logo" xmlns="http://www.w3.org/2000/svg" width="187.658" height="40" viewBox="0 0 187.658 40">
  <g id="Сгруппировать_21" data-name="Сгруппировать 21" transform="translate(0 0.003)">
    <g id="Сгруппировать_2" data-name="Сгруппировать 2" transform="translate(0 10.001)">
      <g id="Сгруппировать_1" data-name="Сгруппировать 1">
        <path id="SVGID_1_" d="M3.919,22.659c-.16-7.919,12.318-7.919,12.158-.08C16.158,26.5,13.118,28.5,10,28.5s-6.159-1.92-6.079-5.839m-.96-7.119A9.682,9.682,0,0,0,0,22.579v18c-.08,2.56,4,2.48,3.92,0v-10c6.239,5.119,16.4.16,16.078-8C20.237,16.659,14.878,12.5,9.678,12.5a9.858,9.858,0,0,0-6.719,3.04" transform="translate(0.001 -12.5)" fill="#03050c"/>
      </g>
    </g>
    <g id="Сгруппировать_4" data-name="Сгруппировать 4" transform="translate(22.956 0.082)">
      <g id="Сгруппировать_3" data-name="Сгруппировать 3">
        <path id="SVGID_3_" d="M28.7,2.02v26a2.016,2.016,0,0,0,3.44,1.44,1.814,1.814,0,0,0,.56-1.44v-26A1.865,1.865,0,0,0,30.7.1a1.912,1.912,0,0,0-2,1.92" transform="translate(-28.697 -0.1)" fill="#03050c"/>
      </g>
    </g>
    <g id="Сгруппировать_6" data-name="Сгруппировать 6" transform="translate(29.691 10.076)">
      <g id="Сгруппировать_5" data-name="Сгруппировать 5">
        <path id="SVGID_5_" d="M53.1,22.518c.08,3.12-1.84,6.159-5.759,6.079-4.159.16-6.079-2.96-6-6.079.08-3.04,2.08-6.159,6-6.079,3.76-.08,5.759,3.04,5.759,6.079M40.143,15.478c-8.8,8.639,3.44,22.4,13.118,15.038.08,2.48,4,2.64,3.92,0V22.677c.32-6-4.879-10.079-10.159-10.079a8.8,8.8,0,0,0-6.879,2.88" transform="translate(-37.117 -12.594)" fill="#03050c"/>
      </g>
    </g>
    <g id="Сгруппировать_8" data-name="Сгруппировать 8" transform="translate(52.155 9.921)">
      <g id="Сгруппировать_7" data-name="Сгруппировать 7">
        <path id="SVGID_7_" d="M65.2,18.479c0,3.04,1.92,6.079,5.839,6,4.479.64.48,6.8-2,2.88-2.96-4.479-5.919,1.12-1.76,3.84,5.679,4.8,13.278-3.92,8-8.959-1.52-1.92-3.92-1.2-5.679-2.4-2.32-2.24,2.16-5.119,3.28-2.4,3.6,5.439,7.039-4.559-1.84-5.039h-.16c-3.68.08-5.6,3.04-5.679,6.079" transform="translate(-65.2 -12.4)" fill="#03050c"/>
      </g>
    </g>
    <g id="Сгруппировать_10" data-name="Сгруппировать 10" transform="translate(65.831)">
      <g id="Сгруппировать_9" data-name="Сгруппировать 9">
        <path id="SVGID_9_" d="M89.1,0c-3.44-.16-1.52,8.159-1.92,10H86.3c-1.68-.08-4-.16-4,2-.08,2.16,2.32,2.08,4,2h.8V28.076a1.96,1.96,0,1,0,3.92,0V13.918h2.8a1.865,1.865,0,0,0,1.92-2,1.865,1.865,0,0,0-1.92-2h-2.8C90.618,8.238,92.538,0,89.259,0H89.1" transform="translate(-82.298 0.003)" fill="#03050c"/>
      </g>
    </g>
    <g id="Сгруппировать_12" data-name="Сгруппировать 12" transform="translate(81.429 2.002)">
      <g id="Сгруппировать_11" data-name="Сгруппировать 11" transform="translate(0 0)">
        <path id="SVGID_11_" d="M101.879,12.419c.16.48-.56,17.918.56,17.518a1.976,1.976,0,0,0,3.36-1.44V12.419a1.865,1.865,0,0,0-2-1.92,1.888,1.888,0,0,0-1.92,1.92m2.08-9.919a1.865,1.865,0,0,0-1.92,2,1.865,1.865,0,0,0,1.92,2,1.826,1.826,0,0,0,1.92-2,1.963,1.963,0,0,0-1.92-2h0" transform="translate(-101.797 -2.5)" fill="#03050c"/>
      </g>
    </g>
    <g id="Сгруппировать_14" data-name="Сгруппировать 14" transform="translate(88.628 0.082)">
      <g id="Сгруппировать_13" data-name="Сгруппировать 13">
        <path id="SVGID_13_" d="M110.8,2.02v26a2.016,2.016,0,0,0,3.44,1.44,1.814,1.814,0,0,0,.56-1.44v-26a1.865,1.865,0,0,0-2-1.92,1.912,1.912,0,0,0-2,1.92" transform="translate(-110.797 -0.1)" fill="#03050c"/>
      </g>
    </g>
    <g id="Сгруппировать_16" data-name="Сгруппировать 16" transform="translate(95.669 2.002)">
      <g id="Сгруппировать_15" data-name="Сгруппировать 15" transform="translate(0 0)">
        <path id="SVGID_15_" d="M119.6,12.419V28.5a1.98,1.98,0,0,0,2,2,1.915,1.915,0,0,0,1.92-2V12.419a1.865,1.865,0,0,0-2-1.92,1.844,1.844,0,0,0-1.92,1.92m2-9.919a1.865,1.865,0,0,0-1.92,2,1.865,1.865,0,0,0,1.92,2,1.826,1.826,0,0,0,1.92-2,1.865,1.865,0,0,0-1.92-2h0" transform="translate(-119.6 -2.5)" fill="#03050c"/>
      </g>
    </g>
    <g id="Сгруппировать_18" data-name="Сгруппировать 18" transform="translate(102.433 9.921)">
      <g id="Сгруппировать_17" data-name="Сгруппировать 17">
        <path id="SVGID_17_" d="M128.171,30.478c-.08,2.56,4.079,2.56,3.919,0v-8c-.16-7.919,12.318-7.839,12.158,0v8c-.08,2.56,4,2.56,3.92,0,.48-7.839.4-17.758-10.079-18.078-10.239.32-10.319,10.159-9.919,18.078" transform="translate(-128.056 -12.4)" fill="#03050c"/>
      </g>
    </g>
  </g>
  <g id="Сгруппировать_19" data-name="Сгруппировать 19" transform="translate(138.237)">
    <path id="Контур_1" data-name="Контур 1" d="M192.881,30.5c.16,2.64-3.84,2.48-3.919,0-9.679,7.439-21.917-6.4-13.118-15.038,5.919-6.4,17.438-1.68,17.038,7.119V30.5Zm-9.839-1.92c7.759.24,7.679-12.238,0-12.078-7.839-.24-8.159,12.318,0,12.078" transform="translate(-172.817 -2.497)" fill="#03050c"/>
    <path id="Контур_2" data-name="Контур 2" d="M205.294,30.449c.08,2.56-4,2.56-3.919,0v-8c-1.28-5.519,10-14.238,12.078-8.079a2.032,2.032,0,0,1-2,2c-7.439-.16-6.079,9.279-6.159,14.078" transform="translate(-178.511 -2.448)" fill="#03050c"/>
    <path id="Контур_3" data-name="Контур 3" d="M229.318,10c2.56-.08,2.56,4,0,3.92h-2.8V28a2.032,2.032,0,0,1-2,2,1.963,1.963,0,0,1-1.92-2V13.917c-1.6,0-4.879.48-4.8-2-.08-2.48,3.28-1.92,4.8-1.92.48-1.84-1.52-10.159,1.92-10,3.44-.24,1.52,8.159,2,10Z" transform="translate(-181.817 0.006)" fill="#03050c"/>
  </g>
  <g id="Сгруппировать_20" data-name="Сгруппировать 20" transform="translate(21.519 33.521)">
    <path id="Контур_4" data-name="Контур 4" d="M33.059,48.259h-.72l-1.2-4.159a1.6,1.6,0,0,1-.16-.72l-.16-.48a6.664,6.664,0,0,1-.32,1.2l-1.2,4.159h-.72L26.9,42.1h.8l.96,3.84a10.286,10.286,0,0,1,.32,1.52,10.287,10.287,0,0,1,.32-1.52l1.12-3.76h.8l1.12,3.84a7.217,7.217,0,0,1,.32,1.52c.08-.4.16-.88.32-1.52l.96-3.84h.8Z" transform="translate(-26.9 -41.94)" fill="#03050c"/>
    <path id="Контур_5" data-name="Контур 5" d="M56.74,48.259H53.3V42.1h3.44v.64H54.02v2h2.56v.64H54.02v2.24h2.72Z" transform="translate(-32.183 -41.94)" fill="#03050c"/>
    <path id="Контур_6" data-name="Контур 6" d="M74.8,42.1h1.76a3.693,3.693,0,0,1,1.84.4,1.21,1.21,0,0,1,.56,1.12,1.456,1.456,0,0,1-.32.88,1.347,1.347,0,0,1-.88.48v.08c.96.16,1.44.64,1.44,1.52a1.492,1.492,0,0,1-.56,1.28,2.306,2.306,0,0,1-1.52.48H74.96Zm.64,2.64h1.12a2.119,2.119,0,0,0,1.12-.24,1.222,1.222,0,0,0,.32-.8,1.111,1.111,0,0,0-.4-.8,2.119,2.119,0,0,0-1.12-.24H75.44Zm0,.64V47.7h1.28a1.564,1.564,0,0,0,1.12-.32,1.032,1.032,0,0,0,.4-.88.883.883,0,0,0-.4-.8,2.119,2.119,0,0,0-1.12-.24Z" transform="translate(-36.485 -41.94)" fill="#03050c"/>
    <path id="Контур_7" data-name="Контур 7" d="M118.94,46.639a1.592,1.592,0,0,1-.56,1.28,2.388,2.388,0,0,1-1.6.48,4.673,4.673,0,0,1-1.68-.24v-.72a2.347,2.347,0,0,0,.8.24,3.281,3.281,0,0,0,.88.08,2.323,2.323,0,0,0,1.12-.24.984.984,0,0,0,.4-.8.858.858,0,0,0-.16-.48c-.08-.16-.24-.24-.48-.4a3.065,3.065,0,0,0-.88-.4,2.8,2.8,0,0,1-1.2-.72,1.582,1.582,0,0,1-.4-1.12,1.452,1.452,0,0,1,.48-1.12A2.573,2.573,0,0,1,117.1,42a5.692,5.692,0,0,1,1.68.32l-.16.64a5.164,5.164,0,0,0-1.52-.32,1.287,1.287,0,0,0-.88.24,1.014,1.014,0,0,0-.32.72.858.858,0,0,0,.16.48.944.944,0,0,0,.4.4,3.686,3.686,0,0,0,.8.4,3.042,3.042,0,0,1,1.36.8A1.352,1.352,0,0,1,118.94,46.639Z" transform="translate(-44.549 -41.92)" fill="#03050c"/>
    <path id="Контур_8" data-name="Контур 8" d="M138.54,48.259h-.72V42.74H135.9V42.1h4.639v.64h-1.92l-.08,5.519Z" transform="translate(-48.711 -41.94)" fill="#03050c"/>
    <path id="Контур_9" data-name="Контур 9" d="M162.919,42.08v4a2.016,2.016,0,0,1-.64,1.68,2.585,2.585,0,0,1-1.76.56,2.334,2.334,0,0,1-1.76-.56,2.253,2.253,0,0,1-.56-1.68v-4h.72v4.079a1.342,1.342,0,0,0,.48,1.12,1.8,1.8,0,0,0,1.2.4,1.965,1.965,0,0,0,1.2-.4,1.672,1.672,0,0,0,.48-1.2V42l.64.08Z" transform="translate(-53.173 -41.92)" fill="#03050c"/>
    <path id="Контур_10" data-name="Контур 10" d="M186.559,45.04a2.924,2.924,0,0,1-.8,2.32,3.6,3.6,0,0,1-2.4.8H181.6V42h1.84a2.849,2.849,0,0,1,2.24.8A3.01,3.01,0,0,1,186.559,45.04Zm-.8.08a2.136,2.136,0,0,0-2.4-2.48h-1.04V47.6h.88a2.44,2.44,0,0,0,1.92-.64A2.259,2.259,0,0,0,185.759,45.12Z" transform="translate(-57.856 -41.92)" fill="#03050c"/>
    <path id="Контур_11" data-name="Контур 11" d="M204.9,48.259V42.1h.72v6.159Z" transform="translate(-62.518 -41.94)" fill="#03050c"/>
    <path id="Контур_12" data-name="Контур 12" d="M228.639,45.1a3.156,3.156,0,0,1-.8,2.32,2.6,2.6,0,0,1-2.08.8,2.9,2.9,0,0,1-2.16-.8,3.6,3.6,0,0,1-.8-2.4,2.924,2.924,0,0,1,.8-2.32,2.67,2.67,0,0,1,2.16-.8,2.5,2.5,0,0,1,2.08.8A3.355,3.355,0,0,1,228.639,45.1Zm-4.959,0a3.238,3.238,0,0,0,.48,1.92,1.793,1.793,0,0,0,1.52.64,1.62,1.62,0,0,0,1.52-.64,3.412,3.412,0,0,0,.48-1.92,2.818,2.818,0,0,0-.48-1.84,1.814,1.814,0,0,0-1.52-.64,1.62,1.62,0,0,0-1.52.64A3.622,3.622,0,0,0,223.68,45.1Z" transform="translate(-66.1 -41.9)" fill="#03050c"/>
  </g>
</svg>
