<svg aria-hidden="true" style="position: absolute; width: 0; height: 0; overflow: hidden;" version="1.1" xmlns="http://www.w3.org/2000/svg" xmlns:xlink="http://www.w3.org/1999/xlink">
<defs>
<symbol id="icon-burger" viewBox="0 0 133 32">
<path d="M0 0h132.571v4.571h-132.571v-4.571z"></path>
<path d="M0 27.429h91.429v4.571h-91.429v-4.571z"></path>
</symbol>
<symbol id="icon-click" viewBox="0 0 44 32">
<path d="M25.711 30.213v1.787h-13.81l0.005-1.787-0.009 0.006c0.101-0.006 0.201-0.017 0.303-0.017q6.593 0 13.186 0c0.111 0 0.222 0.012 0.333 0.017z"></path>
<path d="M43.786 13.054q-0.944 0-1.888-0.004l0.007 0.009v-3.639l-0.008 0.010q0.944 0 1.888 0z"></path>
<path d="M6.191 28.361c-0.081 0.007-0.16 0.021-0.241 0.021q-2.873 0-5.746 0c-0.060 0-0.121-0.006-0.205-0.011v-18.926h0.35q2.736 0 5.472 0c0.121 0 0.241-0.013 0.363-0.021l-0.008-0.006v1.85h-4.291v14.865h4.291v2.242z"></path>
<path d="M23.758 5.852v1.779h18.14v1.799l0.008-0.010c-0.12 0.010-0.241 0.029-0.361 0.029q-12.513 0-25.027 0h-0.328v-1.818h5.7v-1.772h1.881z"></path>
<path d="M20.001 1.768v-1.768h5.679v5.852h-1.918l0.010 0.007v-4.080c-0.263 0-0.47 0-0.682 0q-1.548-0.009-3.097-0.018z"></path>
<path d="M11.908 30.213q-2.674-0.006-5.347-0.013c-0.119 0-0.237 0-0.37 0v-1.839l-0.011 0.011h5.721v1.843z"></path>
<path d="M13.794 5.861v-2.242c0.037-0.010 0.082-0.018 0.127-0.022l0.004-0q2.003 0 4.005 0c0.044 0.003 0.085 0.010 0.125 0.019l-0.005-0.001-0.006-0.008v2.245h-4.259z"></path>
<path d="M9.959 7.643v-1.782h3.836l-0.010-0.010v1.784h-3.835z"></path>
<path d="M6.187 9.427v-1.784h3.772l-0.010-0.008v1.814c-0.937 0-1.855 0-2.773 0-0.332 0-0.664-0.018-0.997-0.026z"></path>
<path d="M18.050 3.614v-1.846h1.951l-0.008-0.006v1.844h-1.948z"></path>
<path d="M41.898 13.049v1.806h-8.1v4.067h-1.946l0.011 0.010v-4.082h-8.064v-1.793h18.105z"></path>
<path d="M31.852 18.922c0.008 0.095 0.024 0.189 0.024 0.284q0 2.412 0 4.822c0 0.094-0.009 0.187-0.016 0.308h-1.891l0.009 0.010v-3.635h-6.181v-1.779h8.067z"></path>
<path d="M29.973 24.337v4.028h-1.884l0.006 0.009v-2.256h-6.189v-1.773h8.072z"></path>
<path d="M28.085 28.367v1.847h-2.375l0.010 0.007v-1.845h2.372z"></path>
</symbol>
<symbol id="icon-Close1" viewBox="0 0 32 32">
<path d="M1.060 0l30.737 30.737-1.060 1.060-30.737-30.737 1.060-1.060z"></path>
<path d="M0 30.94l30.737-30.737 1.060 1.060-30.737 30.737-1.060-1.060z"></path>
</symbol>
<symbol id="icon-Next-1" viewBox="0 0 57 32">
<path fill="#e6340d" style="fill: var(--color2, #e6340d)" d="M41.639 0l-1.923 1.923 12.374 12.373h-52.089v2.641h52.089l-12.374 12.41 1.923 2.653 14.949-15.121v-2.583z"></path>
</symbol>
<symbol id="icon-Ok" viewBox="0 0 45 32">
<path fill="#83b752" style="fill: var(--color3, #83b752)" d="M41.026 0l-26.199 26.189-10.959-10.949-3.868 3.866 12.897 12.895h3.866l28.132-28.134z"></path>
</symbol>
<symbol id="icon-Telegram" viewBox="0 0 39 32">
<path fill="#fff" style="fill: var(--color4, #fff)" d="M38.736 0.672c-0.064-0.295-0.279-0.527-0.559-0.614l-0.006-0.002c-0.171-0.036-0.367-0.057-0.568-0.057-0.343 0-0.673 0.060-0.978 0.171l0.020-0.006s-34.010 12.223-35.95 13.577c-0.422 0.293-0.563 0.462-0.63 0.662-0.333 0.963 0.716 1.389 0.716 1.389l8.769 2.853c0.052 0.010 0.111 0.016 0.172 0.016 0.097 0 0.191-0.015 0.279-0.042l-0.007 0.002c1.992-1.258 20.061-12.67 21.105-13.056 0.159-0.048 0.286 0 0.252 0.12-0.422 1.463-16.112 15.415-16.112 15.415-0.040 0.046-0.074 0.1-0.099 0.158l-0.001 0.004h-0.018l-0.817 8.693s-0.353 2.666 2.32 0c1.875-1.875 3.693-3.451 4.605-4.217 3.017 2.078 6.262 4.39 7.663 5.588 0.436 0.418 1.029 0.676 1.683 0.676 0.001 0 0.003 0 0.004 0h0.081c1.329-0.048 1.697-1.509 1.697-1.509s6.2-24.934 6.405-28.286c0.021-0.326 0.051-0.529 0.051-0.759 0.002-0.034 0.002-0.075 0.002-0.115 0-0.233-0.029-0.46-0.082-0.677l0.004 0.019z"></path>
</symbol>
<symbol id="icon-Vk" viewBox="0 0 54 32">
<path fill="#fff" style="fill: var(--color4, #fff)" d="M52.656 2.167c0.375-1.249 0-2.167-1.783-2.167h-5.905c-0.052-0.004-0.112-0.006-0.173-0.006-1.093 0-2.025 0.689-2.385 1.656l-0.006 0.018c-1.964 4.606-4.395 8.577-7.313 12.134l0.069-0.086c-1.374 1.374-1.998 1.81-2.748 1.81-0.375 0-0.916-0.436-0.916-1.685v-11.672c0-1.499-0.436-2.167-1.685-2.167h-9.262c-0.024-0.001-0.052-0.002-0.080-0.002-0.762 0-1.384 0.6-1.419 1.353l-0 0.003c0 1.42 2.123 1.749 2.341 5.746v8.68c0 1.903-0.343 2.248-1.092 2.248-1.998 0-6.857-7.347-9.743-15.738-0.566-1.631-1.132-2.292-2.638-2.292h-5.897c-1.685 0-2.021 0.793-2.021 1.668 0 1.563 1.998 9.307 9.307 19.546 4.871 6.995 11.734 10.776 17.979 10.776 3.747 0 4.21-0.843 4.21-2.292v-5.275c0-1.685 0.355-2.021 1.541-2.021 0.874 0 2.373 0.436 5.878 3.808 3.997 3.997 4.653 5.79 6.904 5.79h5.895c1.685 0 2.525-0.843 2.040-2.503-1.321-2.667-2.984-4.948-4.969-6.904l-0.003-0.003c-1.374-1.624-3.429-3.372-4.058-4.247-0.874-1.124-0.625-1.624 0-2.623-0.010 0 7.171-10.117 7.933-13.551z"></path>
</symbol>
</defs>
</svg>
