<svg id="_1c" data-name="1c" xmlns="http://www.w3.org/2000/svg" xmlns:xlink="http://www.w3.org/1999/xlink" width="92.686" height="100" viewBox="0 0 92.686 100">
  <defs>
    <clipPath id="clip-path">
      <rect id="Прямоугольник_176" data-name="Прямоугольник 176" width="92.686" height="100" fill="#e55030"/>
    </clipPath>
  </defs>
  <g id="Сгруппировать_228" data-name="Сгруппировать 228" clip-path="url(#clip-path)">
    <path id="Контур_1416" data-name="Контур 1416" d="M18.787,38.016a15.15,15.15,0,1,1,27.975-8.035,7.245,7.245,0,0,1-.149,1.786l-1.488-.149c0-.6.149-1.042.149-1.637a13.69,13.69,0,1,0-27.38,0,14.253,14.253,0,0,0,2.083,7.291ZM35.9,29.981A4.315,4.315,0,1,0,31.585,34.3,4.318,4.318,0,0,0,35.9,29.981m-1.488,0a2.827,2.827,0,1,1-2.827-2.827,2.655,2.655,0,0,1,2.827,2.827M10.157,68.074H4.8v1.488H8.669v14.88h1.488Zm4.166-4.315H7.478v1.488h5.357v19.2h1.488Zm41.07,14.583H27.864a4.613,4.613,0,1,1,4.613-5.059l1.488-.149a6.264,6.264,0,0,0-6.1-5.655,6.1,6.1,0,0,0,0,12.2H55.393Zm0,4.018H27.864a8.8,8.8,0,0,1-8.779-8.779A8.7,8.7,0,0,1,27.864,64.8,8.55,8.55,0,0,1,36.5,72.985l1.488-.149A10.2,10.2,0,1,0,27.864,83.7H55.393Zm-12.2-27.677V37.57H41.7V54.682s0,3.571-2.827,4.91l.6,1.339a7.3,7.3,0,0,0,3.72-6.25m13.095-8.035c0-2.976-1.637-4.018-2.976-4.315-1.934-.446-5.208.744-5.655.744l.446,1.339c.893-.3,3.571-1.042,4.762-.744.744.149,1.786.744,1.786,2.827v8.779h1.488V46.647Zm-.149,6.547L55.1,52.153s-3.72,3.571-5.8,1.934A2.056,2.056,0,0,1,48.4,52.45a2.624,2.624,0,0,1,1.19-2.232c1.042-.744,4.166-.893,5.952-.893V47.837c-.446,0-5.059-.149-6.845,1.19a4.607,4.607,0,0,0-1.786,3.422,3.456,3.456,0,0,0,1.339,2.827,3.363,3.363,0,0,0,2.232.744c2.827,0,5.506-2.678,5.655-2.827m25.892-6.4c0-2.976-1.637-4.018-2.976-4.315-1.934-.446-5.208.744-5.655.744l.446,1.339c.893-.3,3.571-1.042,4.762-.744.744.149,1.786.744,1.786,2.827v8.779H81.88V46.8Zm-.149,6.547L80.838,52.3s-3.72,3.571-5.8,1.934a2.056,2.056,0,0,1-.893-1.637,2.624,2.624,0,0,1,1.19-2.232c1.042-.744,4.166-.893,5.952-.893V47.986c-.446,0-5.059-.149-6.845,1.19A4.607,4.607,0,0,0,72.654,52.6a3.456,3.456,0,0,0,1.339,2.827,3.363,3.363,0,0,0,2.232.744c2.827,0,5.506-2.678,5.655-2.827M66.107,54.98c.149-.3,3.274-6.845,4.018-12.5l-1.488-.149a43.952,43.952,0,0,1-3.72,11.607h-.6L60.9,42.183l-1.488.446,3.72,12.8h2.678Z" transform="translate(2.343 7.224)" fill="#e55030"/>
    <path id="Контур_1417" data-name="Контур 1417" d="M91.365,21.134A14.844,14.844,0,0,0,88.538,4.766l-.744-.744L81.842,17.414l-5.059-.149L72.913,13.4,78.866,0h-1.19A14.831,14.831,0,0,0,63.688,8.933a15.064,15.064,0,0,0,2.678,16.22l-.149.3H52.825l2.827-3.72-5.8-5.655L45.831,19.2a19.4,19.4,0,0,0-7.291-2.976L37.8,11.165H29.761l-.6,4.91c-2.381.149-5.357,1.934-7.291,3.125l-4.018-2.976L14.88,19.2H0V100H91.663V25.747H88.24a16.8,16.8,0,0,0,3.125-4.613M68.152,25l-.3-.3A13.608,13.608,0,0,1,76.633,1.641l-5.357,12.2,4.91,5.059,6.7.149,5.357-12.2a13.543,13.543,0,0,1,1.786,13.987A13.367,13.367,0,0,1,77.08,28.872h-.446l-3.869,8.779h-9.97Zm-3.125,3.571-4.018,8.779h-.3V33.932l-5.059-.6a18.049,18.049,0,0,0-1.637-4.762ZM17.856,18.158l3.869,2.827.446-.3c3.274-2.232,6.1-3.422,7.589-3.274l.744.149.6-5.059h5.506l.744,4.762.446.149a20.976,20.976,0,0,1,7.738,3.274l.446.3L49.7,18.01l3.869,3.869-2.976,3.869.3.446a22.082,22.082,0,0,1,3.274,7.738l.149.6,4.762.6v2.232H37.5L32.439,43.6H13.987l-.446-1.786-.149-.446-4.762-.6V35.271l4.762-.744.149-.446a23.514,23.514,0,0,1,3.125-7.738l.3-.446-2.976-3.869ZM2.976,22.176H12.2l2.827,3.72a20.957,20.957,0,0,0-2.976,7.291l-5.059.744v8.035l5.059.6a2.115,2.115,0,0,0,.3.893H2.976ZM88.687,41.52V97.173H2.976V46.58h30.8l5.059-6.25H88.687Zm0-12.8v8.631H74.253l3.125-7.143h.149a16.8,16.8,0,0,0,6.547-1.488Z" transform="translate(0 0)" fill="#e55030"/>
  </g>
</svg>
