<svg id="audit" xmlns="http://www.w3.org/2000/svg" xmlns:xlink="http://www.w3.org/1999/xlink" width="100" height="97.705" viewBox="0 0 100 97.705">
  <defs>
    <clipPath id="clip-path">
      <rect id="Прямоугольник_176" data-name="Прямоугольник 176" width="100" height="97.704" fill="#e55030"/>
    </clipPath>
  </defs>
  <path id="Контур_1414" data-name="Контур 1414" d="M79.749,51.878H78.314V45.135H9.735v6.743H8.3V43.7H79.749Z" transform="translate(3.608 18.997)" fill="#e55030"/>
  <g id="Сгруппировать_229" data-name="Сгруппировать 229" transform="translate(0 0)">
    <g id="Сгруппировать_228" data-name="Сгруппировать 228" clip-path="url(#clip-path)">
      <path id="Контур_1415" data-name="Контур 1415" d="M14.921,24.821a1.291,1.291,0,1,0,1.291,1.291,1.387,1.387,0,0,0-1.291-1.291m0,1.435h0c-.143-.143-.143-.287,0-.287Zm0,0v-.287c0,.143.143.143,0,.287h0M23.1,24.821a1.291,1.291,0,1,0,1.291,1.291A1.387,1.387,0,0,0,23.1,24.821m0,1.435h0c-.143-.143-.143-.287,0-.287Zm0,0v-.287c0,.143.143.143,0,.287h0m8.178-1.435a1.291,1.291,0,1,0,1.291,1.291,1.387,1.387,0,0,0-1.291-1.291m0,1.435h0c-.143-.143-.143-.287,0-.287Zm0,0v-.287c0,.143.143.143,0,.287h0M100,64.993l-4.878-5.165V9.9H85.509a26.508,26.508,0,0,0-41.32,0H0V81.923H39.311V94.835H35.438V97.7H60.115V94.835H55.954V81.923H95.122V63.989l2.726,2.869ZM92.4,12.769v43.9l-3.156-3.3V37.59a27.306,27.306,0,0,0,2.3-10.76,26.347,26.347,0,0,0-4.017-14.06ZM7.461,70.158V35.007H39.455c.43,1.291,1,2.582,1.578,3.874H11.908V59.4H83.357V51.22L87.8,56.1V70.3H7.461ZM39.024,33.572H7.461V22.238a3.552,3.552,0,0,1,3.587-3.587H39.455a25.691,25.691,0,0,0-1.291,8.178,26.331,26.331,0,0,0,.861,6.743M80.631,48.207l1.291,1.435v8.321H13.343V40.316H41.894a26.4,26.4,0,0,0,38.737,7.891m2.726-1.291v-1A24.633,24.633,0,0,0,87.8,40.172V51.65ZM64.849,2.869A23.816,23.816,0,1,1,41.033,26.686,23.849,23.849,0,0,1,64.849,2.869m-22.812,9.9a25.428,25.428,0,0,0-2.152,4.448H11.047a5.083,5.083,0,0,0-5.022,5.022V70.3H2.869V12.769ZM53.085,94.835h-10.9V81.923h10.9Zm2.869-15.782H2.869V71.593H92.4v7.461Zm36.442-8.9H89.24V57.532l3.156,3.3Z" transform="translate(0 0)" fill="#e55030"/>
    </g>
  </g>
</svg>
