<svg id="contextual_advertising" data-name="contextual advertising" xmlns="http://www.w3.org/2000/svg" xmlns:xlink="http://www.w3.org/1999/xlink" width="100" height="87.019" viewBox="0 0 100 87.019">
  <defs>
    <clipPath id="clip-path">
      <rect id="Прямоугольник_176" data-name="Прямоугольник 176" width="100" height="87.019" fill="#e55030"/>
    </clipPath>
  </defs>
  <path id="Контур_1416" data-name="Контур 1416" d="M89.843,48.987H5.392V38.146H89.843ZM6.819,47.56h81.6V39.572H6.819Z" transform="translate(2.311 16.348)" fill="#e55030"/>
  <g id="Сгруппировать_229" data-name="Сгруппировать 229" transform="translate(0 0)">
    <g id="Сгруппировать_228" data-name="Сгруппировать 228" clip-path="url(#clip-path)">
      <path id="Контур_1417" data-name="Контур 1417" d="M93.3,0H6.561A6.456,6.456,0,0,0,0,6.561v73.9a6.544,6.544,0,0,0,6.561,6.561H93.439A6.544,6.544,0,0,0,100,80.457V6.561A6.666,6.666,0,0,0,93.3,0M6.561,2.853H93.439A3.566,3.566,0,0,1,97,6.561V20.114H2.853V6.561A3.6,3.6,0,0,1,6.561,2.853M93.3,84.023H6.561a3.682,3.682,0,0,1-3.709-3.709V21.54H97V80.457A3.565,3.565,0,0,1,93.3,84.023M9.7,11.27a1.349,1.349,0,0,1,1.427-1.427,1.348,1.348,0,0,1,1.426,1.427A1.406,1.406,0,0,1,11.27,12.7,1.467,1.467,0,0,1,9.7,11.27m9.7,0a1.429,1.429,0,0,1,1.426-1.427,1.349,1.349,0,0,1,1.427,1.427A1.43,1.43,0,0,1,20.827,12.7,1.533,1.533,0,0,1,19.4,11.27m9.7,0a1.429,1.429,0,0,1,1.426-1.427,1.348,1.348,0,0,1,1.427,1.427A1.429,1.429,0,0,1,30.527,12.7,1.533,1.533,0,0,1,29.1,11.27M7.7,50.5H92.154V26.391H7.7Zm83.024-1.427H69.471V27.817H90.727ZM9.13,27.817H68.046V49.073H9.13ZM78.6,42.226a5.857,5.857,0,0,0,3.139-1l3.994,3.994,1-1-3.994-3.994a4.6,4.6,0,0,0,1-3.139A5.135,5.135,0,1,0,78.6,42.226m0-8.844a3.709,3.709,0,1,1-3.709,3.709A3.683,3.683,0,0,1,78.6,33.381M7.7,80.029H92.154V69.187H7.7ZM9.13,70.613h81.6V78.6H9.13Z" transform="translate(0 0)" fill="#e55030"/>
    </g>
  </g>
</svg>
