<svg id="corporate" xmlns="http://www.w3.org/2000/svg" xmlns:xlink="http://www.w3.org/1999/xlink" width="90.625" height="100" viewBox="0 0 90.625 100">
  <defs>
    <clipPath id="clip-path">
      <rect id="Прямоугольник_176" data-name="Прямоугольник 176" width="90.625" height="100" fill="#e55030"/>
    </clipPath>
  </defs>
  <path id="Контур_1416" data-name="Контур 1416" d="M17.112,26.892H9.3V20.5h7.812Zm-6.392-1.42h4.972V20.5H10.72Zm62.926,1.42H65.834V20.5h7.812Zm-6.392-1.42h4.972V20.5H67.255ZM51.63,69.932l-.994-.994L34.868,83.284l.994.994Zm-1.42-9.943-.994-.994L30.181,76.466l.994.994Z" transform="translate(3.91 8.619)" fill="#e55030"/>
  <g id="Сгруппировать_229" data-name="Сгруппировать 229" transform="translate(0 0)">
    <g id="Сгруппировать_228" data-name="Сгруппировать 228" clip-path="url(#clip-path)">
      <path id="Контур_1417" data-name="Контур 1417" d="M84.8,11.08H62.074V4.119A4.122,4.122,0,0,0,57.955,0H32.386a4.122,4.122,0,0,0-4.119,4.119v6.96H5.824A5.945,5.945,0,0,0,0,16.9V63.778A5.85,5.85,0,0,0,5.824,69.6h29.4L32.67,88.494,45.312,100l12.5-11.506L55.256,69.6H84.8a5.85,5.85,0,0,0,5.824-5.824V16.9A5.85,5.85,0,0,0,84.8,11.08M31.108,4.119a1.273,1.273,0,0,1,1.278-1.278H57.813a1.273,1.273,0,0,1,1.278,1.278v6.96H31.108ZM5.824,13.92H84.8A3,3,0,0,1,87.784,16.9V27.7H52.557l.994-5.54a3.233,3.233,0,0,0-.568-2.273,3.021,3.021,0,0,0-2.131-.994H39.773a3.021,3.021,0,0,0-2.131.994,2.553,2.553,0,0,0-.568,2.273l.994,5.54H2.841V16.9A3.1,3.1,0,0,1,5.824,13.92M49.29,30.114H41.335l-1.562-8.239,10.938-.142ZM5.824,66.761a3,3,0,0,1-2.983-2.983V29.119H38.21l.284,1.563a2.671,2.671,0,0,0,1.7,2.131L35.653,66.761ZM45.312,96.023l-9.659-8.665,7.386-54.4H47.3l7.386,54.4ZM84.8,66.761H54.972L50.284,32.813a3.125,3.125,0,0,0,1.847-2.131l.284-1.562H87.926V63.778A3.124,3.124,0,0,1,84.8,66.761" transform="translate(0 0)" fill="#e55030"/>
    </g>
  </g>
</svg>
