<svg id="integration" xmlns="http://www.w3.org/2000/svg" xmlns:xlink="http://www.w3.org/1999/xlink" width="100" height="93.139" viewBox="0 0 100 93.139">
  <defs>
    <clipPath id="clip-path">
      <rect id="Прямоугольник_176" data-name="Прямоугольник 176" width="100" height="93.139" fill="#e55030"/>
    </clipPath>
  </defs>
  <g id="Сгруппировать_228" data-name="Сгруппировать 228" transform="translate(0 0)" clip-path="url(#clip-path)">
    <path id="Контур_1414" data-name="Контур 1414" d="M51.491,44.028l1.314.73A15.516,15.516,0,1,1,39.374,21.4a15.251,15.251,0,0,1,13.285,7.445l-1.314.73A14.038,14.038,0,1,0,39.228,50.743a13.723,13.723,0,0,0,12.263-6.715m32.993-7.3a4.222,4.222,0,0,1-8.321,1.022H38.353l4.672,4.672L42,43.444l-6.423-6.569L42,30.451l1.022,1.022-4.672,4.672h37.81a4.177,4.177,0,0,1,8.321.584m-1.46,0A2.774,2.774,0,1,0,80.25,39.5a2.982,2.982,0,0,0,2.774-2.774" transform="translate(10.991 9.841)" fill="#e55030"/>
    <path id="Контур_1415" data-name="Контур 1415" d="M26.277,40.876a22.865,22.865,0,0,1,3.066-7.3L25.985,29.2l7.007-7.007,4.38,3.358a22.865,22.865,0,0,1,7.3-3.066l.73-5.547h9.927l.73,5.4a22.865,22.865,0,0,1,7.3,3.066l4.38-3.358,7.007,7.007-3.358,4.38a21.965,21.965,0,0,1,2.336,4.964l-2.774.876a17.75,17.75,0,0,0-2.628-5.255l-.584-.876L70.8,29.051l-3.358-3.358-4.088,3.066-.876-.584a22.918,22.918,0,0,0-8.029-3.358l-1.022-.146-.73-4.964H47.883l-.73,4.964-1.022.146a23.629,23.629,0,0,0-8.175,3.358l-.73,1.022-4.088-3.066-3.358,3.358,3.066,3.942-.584.876a22.918,22.918,0,0,0-3.358,8.029l-.146,1.022-4.964.73v4.818l5.109.584.146,1.022a22.918,22.918,0,0,0,3.358,8.029l.584.876L29.927,63.5l3.358,3.358L37.372,63.8l.876.584a22.918,22.918,0,0,0,8.029,3.358l1.022.146.73,4.964h4.818l.584-4.964,1.022-.146a22.918,22.918,0,0,0,8.029-3.358l.876-.584,4.088,3.066L70.8,63.5l-3.066-4.088.584-.876A19.75,19.75,0,0,0,70.8,53.577L73.577,54.6a27.252,27.252,0,0,1-2.19,4.672l3.358,4.38-7.007,7.007L63.212,67.3a31.1,31.1,0,0,1-7.153,3.066l-.73,5.547H45.547l-.876-5.547a25.459,25.459,0,0,1-7.153-2.92L33.139,70.8l-7.007-6.861,3.212-4.526a24.951,24.951,0,0,1-3.066-7.3l-5.547-.73V41.606ZM100,0V2.92H72.117L67.007,8.029H54.453a4.007,4.007,0,0,1-3.942,2.628,4.533,4.533,0,0,1-3.942-2.628H34.307L29.2,2.92H.73V0H30.511L35.62,5.109H46.715a4.128,4.128,0,0,1,3.942-2.774A4.272,4.272,0,0,1,54.6,5.109H65.985L70.949,0ZM53.285,6.569A2.772,2.772,0,0,0,50.511,3.8a2.684,2.684,0,0,0-2.774,2.774,2.684,2.684,0,0,0,2.774,2.774,2.772,2.772,0,0,0,2.774-2.774m18.832,83.65H100v2.92H70.949l-5.109-5.109H54.453A4.128,4.128,0,0,1,50.511,90.8a4.272,4.272,0,0,1-3.942-2.774H35.474l-5.109,5.109H.73v-2.92H29.2l5.109-5.109H46.569a4.007,4.007,0,0,1,3.942-2.628,4.533,4.533,0,0,1,3.942,2.628H67.007Zm-18.832-3.65A2.772,2.772,0,0,0,50.511,83.8a2.684,2.684,0,0,0-2.774,2.774,2.774,2.774,0,0,0,5.547,0m-39.854-5.4H0v-69.2H13.431A4.128,4.128,0,0,1,17.372,9.2a4.234,4.234,0,1,1-3.942,5.693H2.92V78.248H13.431a4.128,4.128,0,0,1,3.942-2.774,4.234,4.234,0,1,1-3.942,5.693m1.168-1.46a2.772,2.772,0,0,0,2.774,2.774,2.774,2.774,0,1,0,0-5.547A2.772,2.772,0,0,0,14.6,79.708m0-66.277A2.772,2.772,0,0,0,17.372,16.2a2.684,2.684,0,0,0,2.774-2.774,2.684,2.684,0,0,0-2.774-2.774A2.772,2.772,0,0,0,14.6,13.431" transform="translate(0 0)" fill="#e55030"/>
  </g>
</svg>
