<svg id="Seo" xmlns="http://www.w3.org/2000/svg" xmlns:xlink="http://www.w3.org/1999/xlink" width="100" height="87.019" viewBox="0 0 100 87.019">
  <defs>
    <clipPath id="clip-path">
      <rect id="Прямоугольник_173" data-name="Прямоугольник 173" width="100" height="87.019" fill="#e55030"/>
    </clipPath>
  </defs>
  <g id="Сгруппировать_226" data-name="Сгруппировать 226" clip-path="url(#clip-path)">
    <path id="Контур_1414" data-name="Контур 1414" d="M93.3,0H6.562A6.456,6.456,0,0,0,0,6.562V80.456a6.545,6.545,0,0,0,6.562,6.562H93.438A6.545,6.545,0,0,0,100,80.456V6.562A6.667,6.667,0,0,0,93.3,0M6.562,2.853H93.438A3.566,3.566,0,0,1,97,6.562V20.114H2.853V6.562A3.6,3.6,0,0,1,6.562,2.853M93.3,84.023H6.562a3.683,3.683,0,0,1-3.709-3.709V21.541H97V80.456A3.566,3.566,0,0,1,93.3,84.023M9.7,11.27a1.348,1.348,0,0,1,1.427-1.427,1.348,1.348,0,0,1,1.427,1.427A1.407,1.407,0,0,1,11.27,12.7,1.466,1.466,0,0,1,9.7,11.27m9.7,0a1.43,1.43,0,0,1,1.427-1.427,1.348,1.348,0,0,1,1.427,1.427A1.43,1.43,0,0,1,20.827,12.7,1.534,1.534,0,0,1,19.4,11.27m9.7,0a1.43,1.43,0,0,1,1.427-1.427,1.348,1.348,0,0,1,1.427,1.427A1.43,1.43,0,0,1,30.528,12.7,1.534,1.534,0,0,1,29.1,11.27M17.832,76.462H30.243V46.933H17.832Zm1.427-28.1h9.558V75.036H19.258Zm15.692,28.1H47.361V61.056H34.95Zm1.427-13.98h9.558v12.7H36.377Zm32.81,13.98H81.6v-37.8H69.187Zm1.427-36.377h9.558v34.95H70.613Z" fill="#e55030"/>
    <path id="Контур_1415" data-name="Контур 1415" d="M49.011,67.8H36.6V20.3H49.011ZM37.884,66.377h9.558V21.727H37.884Z" transform="translate(15.611 8.659)" fill="#e55030"/>
  </g>
</svg>
