<svg id="SMM" xmlns="http://www.w3.org/2000/svg" xmlns:xlink="http://www.w3.org/1999/xlink" width="100" height="94.714" viewBox="0 0 100 94.714">
  <defs>
    <clipPath id="clip-path">
      <rect id="Прямоугольник_176" data-name="Прямоугольник 176" width="100" height="94.714" fill="#e55030"/>
    </clipPath>
  </defs>
  <g id="Сгруппировать_228" data-name="Сгруппировать 228" clip-path="url(#clip-path)">
    <path id="Контур_1416" data-name="Контур 1416" d="M36.857,8.714h-4V7.286h4ZM57.429,7.286H44.571V8.714H57.429ZM44.571,87.429H57.429V86H44.571ZM100,27V46a5.578,5.578,0,0,1-5.571,5.571H78.143V87.429a7.316,7.316,0,0,1-7.286,7.286H29a7.316,7.316,0,0,1-7.286-7.286V68H5.571A5.578,5.578,0,0,1,0,62.429V43.571A5.578,5.578,0,0,1,5.571,38H21.857V7.286A7.316,7.316,0,0,1,29.143,0H71a7.316,7.316,0,0,1,7.286,7.286V21.571H94.714A5.4,5.4,0,0,1,100,27M24.714,7.286V14H75.286V7.286a4.451,4.451,0,0,0-4.429-4.429H29a4.424,4.424,0,0,0-4.286,4.429m0,30.714H40.429A5.578,5.578,0,0,1,46,43.571v19a5.578,5.578,0,0,1-5.571,5.571H36.571V78.286L24.714,69.429v10H75.286V53L63.429,61.714V51.571H59.571A5.578,5.578,0,0,1,54,46V27a5.578,5.578,0,0,1,5.571-5.571H75.143V15.286H24.714ZM5.571,65.143H23.857l9.857,7.429V65.143h6.714a2.712,2.712,0,0,0,2.714-2.714V43.571a2.712,2.712,0,0,0-2.714-2.714H5.571a2.712,2.712,0,0,0-2.714,2.714v19a2.6,2.6,0,0,0,2.714,2.571M75.286,87.429V80.857H24.714v6.571a4.451,4.451,0,0,0,4.429,4.429H71a4.523,4.523,0,0,0,4.286-4.429M97.143,27a2.712,2.712,0,0,0-2.714-2.714H59.571A2.712,2.712,0,0,0,56.857,27V46a2.712,2.712,0,0,0,2.714,2.714h6.714v7.429l9.857-7.429H94.429A2.712,2.712,0,0,0,97.143,46Z" fill="#e55030"/>
    <path id="Контур_1417" data-name="Контур 1417" d="M81.386,21.214A5.5,5.5,0,0,0,77.243,19.5,4.992,4.992,0,0,0,74.1,20.643l-1.286,1.286a5.455,5.455,0,0,0-1.286-1.286A5.309,5.309,0,0,0,68.386,19.5a5.721,5.721,0,0,0-4.143,1.714A6.6,6.6,0,0,0,62.671,25.5a7.5,7.5,0,0,0,2,5,55.51,55.51,0,0,0,5,4.714c.714.571,1.429,1.286,2.286,2a1.532,1.532,0,0,0,.857.286,2.031,2.031,0,0,0,.857-.286c.857-.714,1.571-1.429,2.286-2a41.153,41.153,0,0,0,5-4.714,7.5,7.5,0,0,0,2-5,6.6,6.6,0,0,0-1.571-4.286m-1.571,8.429a38.829,38.829,0,0,1-4.857,4.571,24.833,24.833,0,0,0-2.143,1.857c-.714-.714-1.571-1.286-2.143-1.857a38.827,38.827,0,0,1-4.857-4.571,6.476,6.476,0,0,1-1.714-4,4.866,4.866,0,0,1,1.286-3.429,3.891,3.891,0,0,1,3-1.286,3.5,3.5,0,0,1,2.286.857,3.338,3.338,0,0,1,1,1l1.143,1.571,1.143-1.571a3.338,3.338,0,0,1,1-1,3.5,3.5,0,0,1,2.286-.857,3.891,3.891,0,0,1,3,1.286,4.634,4.634,0,0,1,1.286,3.429,6.476,6.476,0,0,1-1.714,4M24.529,42.5a3.714,3.714,0,1,0-3.714-3.714c0,.429.143.714.143,1.143l-5.286,2.857A3.6,3.6,0,0,0,12.814,41.5a3.714,3.714,0,1,0,0,7.429,4.109,4.109,0,0,0,2.857-1.286L20.957,50.5a2.785,2.785,0,0,0-.143,1.143,3.714,3.714,0,1,0,3.714-3.714,4.109,4.109,0,0,0-2.857,1.286l-5.286-2.857a2.785,2.785,0,0,0,.143-1.143c0-.429-.143-.714-.143-1.143l5.286-2.857A4.109,4.109,0,0,0,24.529,42.5m0,6.714A2.286,2.286,0,1,1,22.243,51.5a2.256,2.256,0,0,1,2.286-2.286M12.957,47.357a2.286,2.286,0,1,1,2.286-2.286,2.349,2.349,0,0,1-2.286,2.286M24.529,36.5a2.286,2.286,0,1,1-2.286,2.286A2.256,2.256,0,0,1,24.529,36.5" transform="translate(3.9 8.357)" fill="#e55030"/>
  </g>
</svg>
