<svg xmlns="http://www.w3.org/2000/svg" xmlns:xlink="http://www.w3.org/1999/xlink" width="100" height="100" viewBox="0 0 100 100">
  <defs>
    <clipPath id="clip-path">
      <rect id="Прямоугольник_176" data-name="Прямоугольник 176" width="100" height="100" fill="#e55030"/>
    </clipPath>
  </defs>
  <g id="support" transform="translate(41 -22)">
    <g id="Сгруппировать_228" data-name="Сгруппировать 228" transform="translate(-41 22)" clip-path="url(#clip-path)">
      <path id="Контур_1414" data-name="Контур 1414" d="M44.215,74.916h0a30.82,30.82,0,1,1,18.169-5.866,30.68,30.68,0,0,1-18.169,5.866m0-1.431h0a28.643,28.643,0,0,0,17.167-5.579,29.28,29.28,0,0,0,12.16-23.748A29.307,29.307,0,0,0,44.215,14.831,29.307,29.307,0,0,0,14.888,44.158,29.46,29.46,0,0,0,44.215,73.486m0-20.744a3.961,3.961,0,0,1-1.288-.143,8.327,8.327,0,0,1-5.579-3.433,8.5,8.5,0,1,1,11.874,1.86,7.873,7.873,0,0,1-5.007,1.717M40.067,38.579a7.084,7.084,0,0,0-1.574,9.871,6.88,6.88,0,0,0,4.578,2.861,7.083,7.083,0,1,0-3-12.732" transform="translate(5.856 5.77)" fill="#e55030"/>
      <path id="Контур_1415" data-name="Контур 1415" d="M57.8,100H42.632L41.2,90.7a40.187,40.187,0,0,1-13.591-5.579l-7.582,5.722L9.442,80.114l5.579-7.582A39.035,39.035,0,0,1,9.442,58.941L0,57.8V42.632L9.3,41.2a44.088,44.088,0,0,1,5.579-13.734L9.156,20.029,20.029,9.442l7.439,5.722A40.024,40.024,0,0,1,41.2,9.442L42.346,0H57.511L58.8,9.3a41.973,41.973,0,0,1,13.591,5.579l7.439-5.722,10.73,10.73-5.722,7.582a42.273,42.273,0,0,1,5.722,13.591L100,42.346V57.511l-9.3,1.431a41.222,41.222,0,0,1-5.579,13.448l5.722,7.439L80.114,90.7l-7.582-5.579A39.035,39.035,0,0,1,58.941,90.7ZM45.207,97.139H55.365l1.144-8.87,1-.143a37.24,37.24,0,0,0,14.306-6.009l.858-.572,7.3,5.293,7.153-7.3-5.436-7.153.572-.858a37.241,37.241,0,0,0,6.009-14.306l.143-1,8.87-1.288V44.778l-8.87-1.144-.143-1A38.829,38.829,0,0,0,82.26,28.183l-.715-.858,5.436-7.153-7.3-7.153-7.153,5.436-.858-.572a38.828,38.828,0,0,0-14.449-6.009l-1-.143-1.144-8.87H44.921l-1.144,8.87-1,.143a38.508,38.508,0,0,0-14.592,6.009l-.858.715-7.153-5.436-7.153,7.153,5.436,7.01-.572.858a38.828,38.828,0,0,0-6.009,14.449l-.143,1-8.87,1.431V55.222l9.013,1.144.143,1a38.829,38.829,0,0,0,6.009,14.449l.572.858-5.293,7.3,7.3,7.153,7.153-5.436.858.572a39.324,39.324,0,0,0,14.306,5.866l1,.143Z" transform="translate(0 0)" fill="#e55030"/>
    </g>
  </g>
</svg>
