<svg id="website_development" data-name="website development" xmlns="http://www.w3.org/2000/svg" xmlns:xlink="http://www.w3.org/1999/xlink" width="92.07" height="100" viewBox="0 0 92.07 100">
  <defs>
    <clipPath id="clip-path">
      <rect id="Прямоугольник_172" data-name="Прямоугольник 172" width="92.07" height="100" fill="#e55030"/>
    </clipPath>
  </defs>
  <g id="Сгруппировать_225" data-name="Сгруппировать 225" clip-path="url(#clip-path)">
    <path id="Контур_1409" data-name="Контур 1409" d="M15.229,65.043A14.991,14.991,0,1,1,42.8,56.9a5.86,5.86,0,0,1-.143,1.571l-1.429-.143V56.9a13.571,13.571,0,0,0-27.143,0,13.169,13.169,0,0,0,2.143,7.286Zm16.857-8A4.286,4.286,0,1,0,27.8,61.329a4.3,4.3,0,0,0,4.286-4.286m-1.429,0A2.857,2.857,0,1,1,27.8,54.186a2.866,2.866,0,0,1,2.857,2.857" transform="translate(5.486 17.957)" fill="#e55030"/>
    <path id="Контур_1410" data-name="Контур 1410" d="M7.586,6.3A1.319,1.319,0,0,0,6.3,7.729a1.286,1.286,0,0,0,2.571,0A1.319,1.319,0,0,0,7.586,6.3" transform="translate(2.7 2.7)" fill="#e55030"/>
    <path id="Контур_1411" data-name="Контур 1411" d="M13.786,6.3a1.286,1.286,0,1,0,1.286,1.286A1.28,1.28,0,0,0,13.786,6.3" transform="translate(5.357 2.7)" fill="#e55030"/>
    <path id="Контур_1412" data-name="Контур 1412" d="M19.886,6.3a1.286,1.286,0,1,0,1.286,1.286A1.28,1.28,0,0,0,19.886,6.3" transform="translate(7.971 2.7)" fill="#e55030"/>
    <path id="Контур_1413" data-name="Контур 1413" d="M91.143,63.571h0V58.143a14.72,14.72,0,0,0-.429-11.286V6a6.036,6.036,0,0,0-6-6H6.143A6.068,6.068,0,0,0,0,6v94H91.143V63.571ZM2.857,6A3.171,3.171,0,0,1,6,2.857H84.571A3.171,3.171,0,0,1,87.714,6V18.286H2.857Zm0,13.714h85V42.571L87.286,42,81.429,55.286l-5-.143-3.857-3.857L75,45.857h8.714V24H7.143V45.857H63.857c-.143.286-.429.714-.571,1A14.685,14.685,0,0,0,66,63l-.286.429H51.857l3-3.857-5.714-5.714-3.857,3.286a23.126,23.126,0,0,0-7.286-3l-.714-5h-8l-.714,5a23.127,23.127,0,0,0-7.286,3l-4-3-3,3H2.857ZM77.286,38a14.507,14.507,0,0,0-12.429,6.429H8.571v-19H82.143v19H75.571L78.429,38ZM55,71a17.327,17.327,0,0,0-1.571-4.571H64.571l-3.857,8.714H60V71.714ZM13.429,60l3.857-3.857L21.143,59l.429-.286a19.186,19.186,0,0,1,7.714-3.143l.571-.143.571-4.857H36l.714,4.714.429.143a21.467,21.467,0,0,1,7.714,3.143l.429.286L49,56l3.857,3.857L50,63.714l.286.429a21.745,21.745,0,0,1,3.286,7.714l.143.571L58.429,73v2.286H37.143l-5,6.143H13.429c-.143-.571-.286-1.143-.429-1.857l-.143-.429-4.714-.571V73l4.714-.714L13,71.857a22.563,22.563,0,0,1,3.143-7.714l.286-.429ZM2.857,60h8.857l2.857,3.857a23.126,23.126,0,0,0-3,7.286l-5,.714v8l5,.571c.143.286.143.714.286,1h-9ZM88.286,97.143H2.857V84.286H33.571l5-6.286H88.286V97.143Zm-14.571-22,3.143-7.286H77a14.242,14.242,0,0,0,6.429-1.571h4.714V75H73.714ZM88.286,63.571h-.714l.714-.714Zm-11.714,3h-.429l-3.857,8.714h-10l5.429-12.429-.286-.286a13.568,13.568,0,0,1-2.714-15,13.381,13.381,0,0,1,11.429-8L70.714,51.714l4.857,5,6.571.143,5.429-12.143a13.185,13.185,0,0,1,1.714,13.857,13.331,13.331,0,0,1-12.714,8" fill="#e55030"/>
  </g>
</svg>
