<svg xmlns="http://www.w3.org/2000/svg" width="37.429" height="42.962" viewBox="0 0 37.429 42.962">
  <path id="_2" data-name="2" d="M274.8,27.031V25.782a33.776,33.776,0,0,0-9.278-23.3L263.183,0l-2.344,2.477a33.775,33.775,0,0,0-9.278,23.3v1.265a9.072,9.072,0,0,0-7.061,8.831v7.084h37.429V35.878a9.072,9.072,0,0,0-7.125-8.847M246.5,40.962V35.878a7.069,7.069,0,0,1,5.061-6.768V40.962Zm22.867,0H253.561V25.782a31.781,31.781,0,0,1,8.731-21.93l.891-.942.89.942a31.778,31.778,0,0,1,8.731,21.93v15.18Zm10.562,0H274.8V29.094a7.068,7.068,0,0,1,5.125,6.784Z" transform="translate(-244.5)" fill="#83b752"/>
</svg>
