<svg xmlns="http://www.w3.org/2000/svg" width="39.329" height="50.997" viewBox="0 0 39.329 50.997">
  <path id="_9" data-name="9" d="M14.035,49H2.811L.142,34.379a29.878,29.878,0,0,1,1.694-13.24L3.061,17.83a17.032,17.032,0,0,0,.858-8.479L3.4,6a5.211,5.211,0,1,1,10.275.154l-.5,2.726a16.961,16.961,0,0,0,.924,9.373l.916,2.3a29.773,29.773,0,0,1,1.91,14.409ZM4.479,47h7.927l2.547-12.354a27.715,27.715,0,0,0-1.8-13.351L12.242,19A18.96,18.96,0,0,1,11.209,8.521l.5-2.726A3.211,3.211,0,1,0,5.38,5.7L5.9,9.046a19.052,19.052,0,0,1-.959,9.478L3.712,21.833A27.838,27.838,0,0,0,2.121,34.1Z" transform="translate(24.5 0) rotate(30)" fill="#83b752"/>
</svg>
