<?xml version="1.0" encoding="UTF-8" standalone="no"?>
<!DOCTYPE svg PUBLIC "-//W3C//DTD SVG 1.1//EN" "http://www.w3.org/Graphics/SVG/1.1/DTD/svg11.dtd">
<svg width="100%" height="100%" viewBox="0 0 139 40" version="1.1" xmlns="http://www.w3.org/2000/svg" xmlns:xlink="http://www.w3.org/1999/xlink" xml:space="preserve" xmlns:serif="http://www.serif.com/" style="fill-rule:evenodd;clip-rule:evenodd;stroke-linejoin:round;stroke-miterlimit:2;">
    <g transform="matrix(1,0,0,1,-1055.94,-60)">
        <g transform="matrix(9.09091,0,0,1.33333,-1090.91,-125.333)">
            <path d="M285,96.25C285,95.007 284.852,94 284.67,94C276.734,94 128.266,94 120.33,94C120.148,94 120,95.007 120,96.25C120,112.717 120,214 120,214L285,214L285,96.25Z" style="fill:white;"/>
        </g>
        <g transform="matrix(1,0,0,1,240,0)">
            <path d="M990,40C990,34.477 985.523,30 980,30C944.592,30 825.408,30 790,30C784.477,30 780,34.477 780,40C780,59.16 780,100.84 780,120C780,125.523 784.477,130 790,130C825.408,130 944.592,130 980,130C985.523,130 990,125.523 990,120C990,100.84 990,59.16 990,40Z" style="fill:rgb(246,247,249);"/>
        </g>
        <g transform="matrix(0.377358,0,0,0.377358,1055.94,60)">
            <path id="Name" d="M349.9,92.3C357.1,92.3 362.2,91 366,88.2L366,75.5C362.1,78.2 357.4,79.9 350.8,79.9C339.7,79.9 335.1,71.3 335.1,57.7C335.1,43.4 340.7,36.1 350.9,36.1C356.9,36.1 362.8,38.2 365.9,40.2L365.9,27C362.6,25.2 356.9,23.9 349.1,23.9C329.2,23.9 318.9,38.2 318.9,58.2C319,80.1 329.1,92.3 349.9,92.3ZM252.6,86.5L252.6,73.8C247.8,77.1 239.6,80 232.1,80C220.7,80 216.4,74.6 215.7,63.6L253.3,63.6L253.3,55.4C253.3,32.5 243.2,23.9 227.7,23.9C208.7,23.9 199.7,38.4 199.7,58.3C199.7,81.2 211,92.3 230.8,92.3C240.7,92.3 248,89.6 252.6,86.5ZM109.9,25.1L109.9,51.1L89.1,51.1L89.1,25.1L73.5,25.1L73.5,91L89.1,91L89.1,63.5L109.9,63.5L109.9,91L125.5,91L125.5,25.1L109.9,25.1ZM195.8,78.6L188.9,78.6L188.9,25.1L143.5,25.1L143.5,30.7C143.5,46.8 142.5,67.6 137,78.6L132,78.6L132,106L146.4,106L146.4,91L181.3,91L181.3,106L195.7,106L195.7,78.6L195.8,78.6ZM302.3,91L320,91L295,55.5L317,25.1L301.3,25.1L279.3,55.5L279.3,25.1L263.7,25.1L263.7,91L279.3,91L279.3,58.6L302.3,91ZM227.3,36.1C235,36.1 237.4,42.5 237.4,50.8L237.4,52.1L215.7,52.1C216.1,41.6 219.9,36.1 227.3,36.1ZM173.3,78.6L151.3,78.6C155.6,68.7 156.8,50.7 156.8,39.3L156.8,37.3L173.3,37.3L173.3,78.6Z" style="fill-rule:nonzero;"/>
            <path id="Glyph" d="M60.5,91L44.6,91L44.6,12.3L37.5,12.3C24.5,12.3 17.7,18.8 17.7,28.5C17.7,39.5 22.4,44.6 32.1,51.1L40.1,56.5L17.1,91L0,91L20.7,60.2C8.8,51.7 2.1,43.4 2.1,29.4C2.1,11.9 14.3,0 37.4,0L60.4,0L60.4,91L60.5,91Z" style="fill:rgb(252,63,29);fill-rule:nonzero;"/>
        </g>
    </g>
</svg>
